<svg xmlns="http://www.w3.org/2000/svg" width="2300" height="1380" viewBox="0 0 2300 1380">
    <defs>
      <marker id="arrow" markerWidth="10" markerHeight="8" refX="9" refY="4" orient="auto" markerUnits="strokeWidth">
        <path d="M0,0 L10,4 L0,8 z" fill="context-stroke"/>
      </marker>
      <filter id="shadow" x="-10%" y="-10%" width="120%" height="130%"><feDropShadow dx="0" dy="2" stdDeviation="3" flood-opacity="0.12"/></filter>
    </defs><rect width="100%" height="100%" fill="#FFFFFF"/><text x="32" y="38" font-family="Inter,Segoe UI,Arial" font-size="24" font-weight="800" fill="#15233A">Figure 21 - Run lifecycle and resumable outcomes</text><text x="32" y="62" font-family="Inter,Segoe UI,Arial" font-size="13" fill="#475467">Current run and node states, including durable PAUSING/PAUSED behavior, cancellation, interruption, retry, and checkpoint resume.</text><rect x="40" y="100" width="1030" height="1160" rx="14" fill="#FBFCFF" fill-opacity="0.42" stroke="#4361EE" stroke-width="2"/><rect x="54" y="87" width="130" height="26" rx="6" fill="#FFFFFF" stroke="#4361EE"/><text x="64" y="105" font-family="Inter,Segoe UI,Arial" font-size="14" font-weight="750" fill="#4361EE">RunStatus</text><rect x="1110" y="100" width="1140" height="1160" rx="14" fill="#FAFFFE" fill-opacity="0.42" stroke="#1AAE9F" stroke-width="2"/><rect x="1124" y="87" width="130" height="26" rx="6" fill="#FFFFFF" stroke="#1AAE9F"/><text x="1134" y="105" font-family="Inter,Segoe UI,Arial" font-size="14" font-weight="750" fill="#1AAE9F">NodeStatus</text><path d="M 330.0 222.5 L 430.0 222.5" fill="none" stroke="#4361EE" stroke-width="2.2" stroke-linejoin="round" marker-end="url(#arrow)"/><rect x="281.9" y="127.0" width="196.2" height="26" rx="5" fill="#FFFFFF" stroke="#D0D5DD"/><text x="380.0" y="144.0" text-anchor="middle" font-family="Inter,Segoe UI,Arial" font-size="11" fill="#475467">background execution starts</text><path d="M 430.0 222.5 L 375.0 222.5 L 375.0 370.0 L 212.5 370.0 L 212.5 420.0" fill="none" stroke="#E59A16" stroke-width="2.2" stroke-linejoin="round" marker-end="url(#arrow)"/><rect x="198.2" y="332.0" width="123.6" height="26" rx="5" fill="#FFFFFF" stroke="#D0D5DD"/><text x="260.0" y="349.0" text-anchor="middle" font-family="Inter,Segoe UI,Arial" font-size="11" fill="#475467">optional failure</text><path d="M 565.0 280.0 L 565.0 365.0 L 525.0 365.0 L 525.0 420.0" fill="none" stroke="#1E9E59" stroke-width="2.2" stroke-linejoin="round" marker-end="url(#arrow)"/><rect x="463.2" y="327.0" width="123.6" height="26" rx="5" fill="#FFFFFF" stroke="#D0D5DD"/><text x="525.0" y="344.0" text-anchor="middle" font-family="Inter,Segoe UI,Arial" font-size="11" fill="#475467">required success</text><path d="M 700.0 222.5 L 715.0 222.5 L 715.0 365.0 L 857.5 365.0 L 857.5 420.0" fill="none" stroke="#D95367" stroke-width="2.2" stroke-linejoin="round" marker-end="url(#arrow)"/><rect x="711.9" y="327.0" width="196.2" height="26" rx="5" fill="#FFFFFF" stroke="#D0D5DD"/><text x="810.0" y="344.0" text-anchor="middle" font-family="Inter,Segoe UI,Arial" font-size="11" fill="#475467">required failure / deadlock</text><path d="M 430.0 222.5 L 370.0 222.5 L 370.0 630.0 L 210.0 630.0 L 210.0 700.0" fill="none" stroke="#E76F51" stroke-width="2.2" stroke-linejoin="round" marker-end="url(#arrow)"/><rect x="216.5" y="592.0" width="117.0" height="26" rx="5" fill="#FFFFFF" stroke="#D0D5DD"/><text x="275.0" y="609.0" text-anchor="middle" font-family="Inter,Segoe UI,Arial" font-size="11" fill="#475467">pause requested</text><path d="M 340.0 757.5 L 410.0 757.5" fill="none" stroke="#1AAE9F" stroke-width="2.2" stroke-linejoin="round" marker-end="url(#arrow)"/><rect x="290.1" y="652.0" width="169.8" height="26" rx="5" fill="#FFFFFF" stroke="#D0D5DD"/><text x="375.0" y="669.0" text-anchor="middle" font-family="Inter,Segoe UI,Arial" font-size="11" fill="#475467">safe checkpoint written</text><path d="M 540.0 700.0 L 540.0 610.0 L 1025.0 610.0 L 1025.0 125.0 L 565.0 125.0 L 565.0 165.0" fill="none" stroke="#4361EE" stroke-width="2.2" stroke-linejoin="round" stroke-dasharray="7 5" marker-end="url(#arrow)"/><rect x="758.5" y="62.0" width="183.0" height="26" rx="5" fill="#FFFFFF" stroke="#D0D5DD"/><text x="850.0" y="79.0" text-anchor="middle" font-family="Inter,Segoe UI,Arial" font-size="11" fill="#475467">resume: recheck + restore</text><path d="M 700.0 222.5 L 1010.0 222.5 L 1010.0 750.0 L 980.0 750.0" fill="none" stroke="#E76F51" stroke-width="2.2" stroke-linejoin="round" marker-end="url(#arrow)"/><rect x="918.2" y="607.0" width="123.6" height="26" rx="5" fill="#FFFFFF" stroke="#D0D5DD"/><text x="980.0" y="624.0" text-anchor="middle" font-family="Inter,Segoe UI,Arial" font-size="11" fill="#475467">cancel requested</text><path d="M 860.0 800.0 L 860.0 930.0 L 425.0 930.0 L 425.0 1060.0 L 360.0 1060.0" fill="none" stroke="#667085" stroke-width="2.2" stroke-linejoin="round" marker-end="url(#arrow)"/><rect x="554.8" y="887.0" width="110.4" height="26" rx="5" fill="#FFFFFF" stroke="#D0D5DD"/><text x="610.0" y="904.0" text-anchor="middle" font-family="Inter,Segoe UI,Arial" font-size="11" fill="#475467">probe observed</text><path d="M 700.0 222.5 L 1000.0 222.5 L 1000.0 955.0 L 785.0 955.0 L 785.0 1010.0" fill="none" stroke="#667085" stroke-width="2.2" stroke-linejoin="round" stroke-dasharray="7 5" marker-end="url(#arrow)"/><rect x="818.3" y="917.0" width="143.4" height="26" rx="5" fill="#FFFFFF" stroke="#D0D5DD"/><text x="890.0" y="934.0" text-anchor="middle" font-family="Inter,Segoe UI,Arial" font-size="11" fill="#475467">worker/process loss</text><path d="M 920.0 1065.0 L 1030.0 1065.0 L 1030.0 120.0 L 565.0 120.0 L 565.0 165.0" fill="none" stroke="#4361EE" stroke-width="2.2" stroke-linejoin="round" stroke-dasharray="7 5" marker-end="url(#arrow)"/><rect x="588.5" y="32.0" width="183.0" height="26" rx="5" fill="#FFFFFF" stroke="#D0D5DD"/><text x="680.0" y="49.0" text-anchor="middle" font-family="Inter,Segoe UI,Arial" font-size="11" fill="#475467">resume after interruption</text><path d="M 1390.0 225.0 L 1510.0 225.0" fill="none" stroke="#667085" stroke-width="2.2" stroke-linejoin="round" marker-end="url(#arrow)"/><rect x="1388.2" y="122.0" width="123.6" height="26" rx="5" fill="#FFFFFF" stroke="#D0D5DD"/><text x="1450.0" y="139.0" text-anchor="middle" font-family="Inter,Segoe UI,Arial" font-size="11" fill="#475467">parents terminal</text><path d="M 1730.0 225.0 L 1880.0 225.0" fill="none" stroke="#667085" stroke-width="2.2" stroke-linejoin="round" marker-end="url(#arrow)"/><rect x="1711.8" y="122.0" width="176.4" height="26" rx="5" fill="#FFFFFF" stroke="#D0D5DD"/><text x="1800.0" y="139.0" text-anchor="middle" font-family="Inter,Segoe UI,Arial" font-size="11" fill="#475467">selected in bounded wave</text><path d="M 1880.0 225.0 L 1810.0 225.0 L 1810.0 430.0 L 1290.0 430.0 L 1290.0 500.0" fill="none" stroke="#1E9E59" stroke-width="2.2" stroke-linejoin="round" marker-end="url(#arrow)"/><rect x="1381.6" y="392.0" width="136.8" height="26" rx="5" fill="#FFFFFF" stroke="#D0D5DD"/><text x="1450.0" y="409.0" text-anchor="middle" font-family="Inter,Segoe UI,Arial" font-size="11" fill="#475467">valid typed output</text><path d="M 2005.0 270.0 L 2005.0 430.0 L 1620.0 430.0 L 1620.0 500.0" fill="none" stroke="#E59A16" stroke-width="2.2" stroke-linejoin="round" marker-end="url(#arrow)"/><rect x="1678.2" y="392.0" width="123.6" height="26" rx="5" fill="#FFFFFF" stroke="#D0D5DD"/><text x="1740.0" y="409.0" text-anchor="middle" font-family="Inter,Segoe UI,Arial" font-size="11" fill="#475467">optional failure</text><path d="M 2005.0 270.0 L 2005.0 430.0 L 2005.0 430.0 L 2005.0 500.0" fill="none" stroke="#D95367" stroke-width="2.2" stroke-linejoin="round" marker-end="url(#arrow)"/><rect x="1961.6" y="392.0" width="136.8" height="26" rx="5" fill="#FFFFFF" stroke="#D0D5DD"/><text x="2030.0" y="409.0" text-anchor="middle" font-family="Inter,Segoe UI,Arial" font-size="11" fill="#475467">attempts exhausted</text><path d="M 2130.0 555.0 L 2180.0 555.0 L 2180.0 140.0 L 2005.0 140.0 L 2005.0 180.0" fill="none" stroke="#E76F51" stroke-width="2.2" stroke-linejoin="round" stroke-dasharray="7 5" marker-end="url(#arrow)"/><rect x="2061.8" y="337.0" width="176.4" height="26" rx="5" fill="#FFFFFF" stroke="#D0D5DD"/><text x="2150.0" y="354.0" text-anchor="middle" font-family="Inter,Segoe UI,Arial" font-size="11" fill="#475467">retry below max_attempts</text><path d="M 1180.0 225.0 L 1145.0 225.0 L 1145.0 952.5 L 1220.0 952.5" fill="none" stroke="#667085" stroke-width="2.2" stroke-linejoin="round" marker-end="url(#arrow)"/><rect x="1050.2" y="939.5" width="189.6" height="26" rx="5" fill="#FFFFFF" stroke="#D0D5DD"/><text x="1145.0" y="956.5" text-anchor="middle" font-family="Inter,Segoe UI,Arial" font-size="11" fill="#475467">configuration removes node</text><path d="M 2130.0 225.0 L 2195.0 225.0 L 2195.0 950.0 L 2120.0 950.0" fill="none" stroke="#667085" stroke-width="2.2" stroke-linejoin="round" marker-end="url(#arrow)"/><rect x="2126.6" y="937.0" width="136.8" height="26" rx="5" fill="#FFFFFF" stroke="#D0D5DD"/><text x="2195.0" y="954.0" text-anchor="middle" font-family="Inter,Segoe UI,Arial" font-size="11" fill="#475467">cancellation probe</text><rect x="100" y="175" width="230" height="95" rx="11" fill="#E9EEFF" stroke="#4361EE" stroke-width="2" filter="url(#shadow)"/><text x="112" y="193" font-family="Inter,Segoe UI,Arial" font-size="10" fill="#4361EE">«state»</text><text x="215.0" y="213.0" text-anchor="middle" font-family="Inter,Segoe UI,Arial" font-size="14" font-weight="700" fill="#172033">QUEUED</text><text x="215.0" y="233.0" text-anchor="middle" font-family="Inter,Segoe UI,Arial" font-size="13" font-weight="430" fill="#172033">accepted; background task pending</text><rect x="430" y="165" width="270" height="115" rx="11" fill="#E9EEFF" stroke="#4361EE" stroke-width="2" filter="url(#shadow)"/><text x="442" y="183" font-family="Inter,Segoe UI,Arial" font-size="10" fill="#4361EE">«state»</text><text x="565.0" y="203.0" text-anchor="middle" font-family="Inter,Segoe UI,Arial" font-size="14" font-weight="700" fill="#172033">RUNNING</text><text x="565.0" y="223.0" text-anchor="middle" font-family="Inter,Segoe UI,Arial" font-size="13" font-weight="430" fill="#172033">validated; ready waves execute</text><text x="565.0" y="243.0" text-anchor="middle" font-family="Inter,Segoe UI,Arial" font-size="13" font-weight="430" fill="#172033">pause/cancel probes active</text><rect x="80" y="420" width="265" height="115" rx="11" fill="#FFF4D8" stroke="#E59A16" stroke-width="2" filter="url(#shadow)"/><text x="92" y="438" font-family="Inter,Segoe UI,Arial" font-size="10" fill="#E59A16">«state»</text><text x="212.5" y="458.0" text-anchor="middle" font-family="Inter,Segoe UI,Arial" font-size="14" font-weight="700" fill="#172033">DEGRADED</text><text x="212.5" y="478.0" text-anchor="middle" font-family="Inter,Segoe UI,Arial" font-size="13" font-weight="430" fill="#172033">optional failure or limit warning</text><text x="212.5" y="498.0" text-anchor="middle" font-family="Inter,Segoe UI,Arial" font-size="13" font-weight="430" fill="#172033">report remains available</text><rect x="400" y="420" width="250" height="110" rx="11" fill="#EAF8EF" stroke="#1E9E59" stroke-width="2" filter="url(#shadow)"/><text x="412" y="438" font-family="Inter,Segoe UI,Arial" font-size="10" fill="#1E9E59">«state»</text><text x="525.0" y="458.0" text-anchor="middle" font-family="Inter,Segoe UI,Arial" font-size="14" font-weight="700" fill="#172033">SUCCEEDED</text><text x="525.0" y="478.0" text-anchor="middle" font-family="Inter,Segoe UI,Arial" font-size="13" font-weight="430" fill="#172033">required paths complete</text><text x="525.0" y="498.0" text-anchor="middle" font-family="Inter,Segoe UI,Arial" font-size="13" font-weight="430" fill="#172033">report available</text><rect x="735" y="420" width="245" height="110" rx="11" fill="#FFECEF" stroke="#D95367" stroke-width="2" filter="url(#shadow)"/><text x="747" y="438" font-family="Inter,Segoe UI,Arial" font-size="10" fill="#D95367">«state»</text><text x="857.5" y="458.0" text-anchor="middle" font-family="Inter,Segoe UI,Arial" font-size="14" font-weight="700" fill="#172033">FAILED</text><text x="857.5" y="478.0" text-anchor="middle" font-family="Inter,Segoe UI,Arial" font-size="13" font-weight="430" fill="#172033">validation, required failure</text><text x="857.5" y="498.0" text-anchor="middle" font-family="Inter,Segoe UI,Arial" font-size="13" font-weight="430" fill="#172033">or deadlock</text><rect x="80" y="700" width="260" height="115" rx="11" fill="#FFF0EB" stroke="#E76F51" stroke-width="2" filter="url(#shadow)"/><text x="92" y="718" font-family="Inter,Segoe UI,Arial" font-size="10" fill="#E76F51">«state»</text><text x="210.0" y="738.0" text-anchor="middle" font-family="Inter,Segoe UI,Arial" font-size="14" font-weight="700" fill="#172033">PAUSING</text><text x="210.0" y="758.0" text-anchor="middle" font-family="Inter,Segoe UI,Arial" font-size="13" font-weight="430" fill="#172033">pause accepted</text><text x="210.0" y="778.0" text-anchor="middle" font-family="Inter,Segoe UI,Arial" font-size="13" font-weight="430" fill="#172033">finish safe point + checkpoint</text><rect x="410" y="700" width="260" height="115" rx="11" fill="#E5F8F5" stroke="#1AAE9F" stroke-width="2" filter="url(#shadow)"/><text x="422" y="718" font-family="Inter,Segoe UI,Arial" font-size="10" fill="#1AAE9F">«state»</text><text x="540.0" y="738.0" text-anchor="middle" font-family="Inter,Segoe UI,Arial" font-size="14" font-weight="700" fill="#172033">PAUSED</text><text x="540.0" y="758.0" text-anchor="middle" font-family="Inter,Segoe UI,Arial" font-size="13" font-weight="430" fill="#172033">durable checkpoint stable</text><text x="540.0" y="778.0" text-anchor="middle" font-family="Inter,Segoe UI,Arial" font-size="13" font-weight="430" fill="#172033">resume rechecks connections</text><rect x="740" y="700" width="240" height="100" rx="11" fill="#FFF0EB" stroke="#E76F51" stroke-width="2" filter="url(#shadow)"/><text x="752" y="718" font-family="Inter,Segoe UI,Arial" font-size="10" fill="#E76F51">«state»</text><text x="860.0" y="738.0" text-anchor="middle" font-family="Inter,Segoe UI,Arial" font-size="14" font-weight="700" fill="#172033">CANCELLING</text><text x="860.0" y="758.0" text-anchor="middle" font-family="Inter,Segoe UI,Arial" font-size="13" font-weight="430" fill="#172033">cancel requested</text><rect x="110" y="1010" width="250" height="100" rx="11" fill="#F2F4F7" stroke="#667085" stroke-width="2" filter="url(#shadow)"/><text x="122" y="1028" font-family="Inter,Segoe UI,Arial" font-size="10" fill="#667085">«state»</text><text x="235.0" y="1048.0" text-anchor="middle" font-family="Inter,Segoe UI,Arial" font-size="14" font-weight="700" fill="#172033">CANCELLED</text><text x="235.0" y="1068.0" text-anchor="middle" font-family="Inter,Segoe UI,Arial" font-size="13" font-weight="430" fill="#172033">cancellation probe observed</text><rect x="650" y="1010" width="270" height="110" rx="11" fill="#F2F4F7" stroke="#667085" stroke-width="2" filter="url(#shadow)"/><text x="662" y="1028" font-family="Inter,Segoe UI,Arial" font-size="10" fill="#667085">«state»</text><text x="785.0" y="1048.0" text-anchor="middle" font-family="Inter,Segoe UI,Arial" font-size="14" font-weight="700" fill="#172033">INTERRUPTED</text><text x="785.0" y="1068.0" text-anchor="middle" font-family="Inter,Segoe UI,Arial" font-size="13" font-weight="430" fill="#172033">worker/process loss</text><text x="785.0" y="1088.0" text-anchor="middle" font-family="Inter,Segoe UI,Arial" font-size="13" font-weight="430" fill="#172033">resume from checkpoint</text><rect x="1180" y="180" width="210" height="90" rx="11" fill="#E5F8F5" stroke="#1AAE9F" stroke-width="2" filter="url(#shadow)"/><text x="1192" y="198" font-family="Inter,Segoe UI,Arial" font-size="10" fill="#1AAE9F">«state»</text><text x="1285.0" y="218.0" text-anchor="middle" font-family="Inter,Segoe UI,Arial" font-size="13" font-weight="700" fill="#172033">PENDING</text><text x="1285.0" y="237.0" text-anchor="middle" font-family="Inter,Segoe UI,Arial" font-size="12" font-weight="430" fill="#172033">not yet eligible</text><rect x="1510" y="175" width="220" height="100" rx="11" fill="#E5F8F5" stroke="#1AAE9F" stroke-width="2" filter="url(#shadow)"/><text x="1522" y="193" font-family="Inter,Segoe UI,Arial" font-size="10" fill="#1AAE9F">«state»</text><text x="1620.0" y="213.0" text-anchor="middle" font-family="Inter,Segoe UI,Arial" font-size="13" font-weight="700" fill="#172033">READY</text><text x="1620.0" y="232.0" text-anchor="middle" font-family="Inter,Segoe UI,Arial" font-size="12" font-weight="430" fill="#172033">parents terminal</text><text x="1620.0" y="251.0" text-anchor="middle" font-family="Inter,Segoe UI,Arial" font-size="12" font-weight="430" fill="#172033">inputs available</text><rect x="1880" y="180" width="250" height="90" rx="11" fill="#E5F8F5" stroke="#1AAE9F" stroke-width="2" filter="url(#shadow)"/><text x="1892" y="198" font-family="Inter,Segoe UI,Arial" font-size="10" fill="#1AAE9F">«state»</text><text x="2005.0" y="218.0" text-anchor="middle" font-family="Inter,Segoe UI,Arial" font-size="14" font-weight="700" fill="#172033">RUNNING</text><text x="2005.0" y="238.0" text-anchor="middle" font-family="Inter,Segoe UI,Arial" font-size="13" font-weight="430" fill="#172033">attempt + timeout active</text><rect x="1180" y="500" width="220" height="95" rx="11" fill="#EAF8EF" stroke="#1E9E59" stroke-width="2" filter="url(#shadow)"/><text x="1192" y="518" font-family="Inter,Segoe UI,Arial" font-size="10" fill="#1E9E59">«state»</text><text x="1290.0" y="538.0" text-anchor="middle" font-family="Inter,Segoe UI,Arial" font-size="13" font-weight="700" fill="#172033">SUCCEEDED</text><text x="1290.0" y="557.0" text-anchor="middle" font-family="Inter,Segoe UI,Arial" font-size="12" font-weight="430" fill="#172033">typed output emitted</text><rect x="1510" y="500" width="220" height="105" rx="11" fill="#FFF4D8" stroke="#E59A16" stroke-width="2" filter="url(#shadow)"/><text x="1522" y="518" font-family="Inter,Segoe UI,Arial" font-size="10" fill="#E59A16">«state»</text><text x="1620.0" y="538.0" text-anchor="middle" font-family="Inter,Segoe UI,Arial" font-size="13" font-weight="700" fill="#172033">DEGRADED</text><text x="1620.0" y="557.0" text-anchor="middle" font-family="Inter,Segoe UI,Arial" font-size="12" font-weight="430" fill="#172033">optional failure</text><text x="1620.0" y="576.0" text-anchor="middle" font-family="Inter,Segoe UI,Arial" font-size="12" font-weight="430" fill="#172033">warning output</text><rect x="1880" y="500" width="250" height="110" rx="11" fill="#FFECEF" stroke="#D95367" stroke-width="2" filter="url(#shadow)"/><text x="1892" y="518" font-family="Inter,Segoe UI,Arial" font-size="10" fill="#D95367">«state»</text><text x="2005.0" y="538.0" text-anchor="middle" font-family="Inter,Segoe UI,Arial" font-size="14" font-weight="700" fill="#172033">FAILED</text><text x="2005.0" y="558.0" text-anchor="middle" font-family="Inter,Segoe UI,Arial" font-size="13" font-weight="430" fill="#172033">attempts exhausted</text><text x="2005.0" y="578.0" text-anchor="middle" font-family="Inter,Segoe UI,Arial" font-size="13" font-weight="430" fill="#172033">required may fail run</text><rect x="1220" y="900" width="260" height="105" rx="11" fill="#F2F4F7" stroke="#667085" stroke-width="2" filter="url(#shadow)"/><text x="1232" y="918" font-family="Inter,Segoe UI,Arial" font-size="10" fill="#667085">«state»</text><text x="1350.0" y="938.0" text-anchor="middle" font-family="Inter,Segoe UI,Arial" font-size="14" font-weight="700" fill="#172033">SKIPPED</text><text x="1350.0" y="958.0" text-anchor="middle" font-family="Inter,Segoe UI,Arial" font-size="13" font-weight="430" fill="#172033">unselected or removed by policy</text><rect x="1850" y="900" width="270" height="100" rx="11" fill="#F2F4F7" stroke="#667085" stroke-width="2" filter="url(#shadow)"/><text x="1862" y="918" font-family="Inter,Segoe UI,Arial" font-size="10" fill="#667085">«state»</text><text x="1985.0" y="938.0" text-anchor="middle" font-family="Inter,Segoe UI,Arial" font-size="14" font-weight="700" fill="#172033">CANCELLED</text><text x="1985.0" y="958.0" text-anchor="middle" font-family="Inter,Segoe UI,Arial" font-size="13" font-weight="430" fill="#172033">run cancellation probe</text></svg>