<svg xmlns="http://www.w3.org/2000/svg" xmlns:xlink="http://www.w3.org/1999/xlink" contentStyleType="text/css" data-diagram-type="DESCRIPTION" height="442px" preserveAspectRatio="none" style="width:1231px;height:442px;background:#FFFFFF;" version="1.1" viewBox="0 0 1231 442" width="1231px" zoomAndPan="magnify"><?plantuml 1.2026.6?><defs/><g><g class="title" data-source-line="1"><text fill="#000000" font-family="sans-serif" font-size="14" font-weight="700" lengthAdjust="spacing" textLength="364.8135" x="429.9756" y="24.5332">OmniTrade AI - UML component design with interfaces</text></g><!--entity Analyst--><g class="entity" data-qualified-name="Analyst" data-source-line="6" id="ent0001"><ellipse cx="28.9551" cy="253.1094" fill="#F1F1F1" rx="8" ry="8" style="stroke:#181818;stroke-width:0.5;"/><path d="M28.9551,261.1094 L28.9551,288.1094 M15.9551,269.1094 L41.9551,269.1094 M28.9551,288.1094 L15.9551,303.1094 M28.9551,288.1094 L41.9551,303.1094" fill="none" style="stroke:#181818;stroke-width:0.5;"/><text fill="#000000" font-family="sans-serif" font-size="14" lengthAdjust="spacing" textLength="45.9102" x="6" y="319.1426">Analyst</text></g><!--entity GUI--><g class="entity" data-qualified-name="GUI" data-source-line="7" id="ent0002"><rect fill="#F1F1F1" height="47.6094" rx="2.5" ry="2.5" style="stroke:#181818;stroke-width:0.5;" width="97.5654" x="112" y="259.6094"/><rect fill="#F1F1F1" height="10" style="stroke:#181818;stroke-width:0.5;" width="15" x="189.5654" y="264.6094"/><rect fill="#F1F1F1" height="2" style="stroke:#181818;stroke-width:0.5;" width="4" x="187.5654" y="266.6094"/><rect fill="#F1F1F1" height="2" style="stroke:#181818;stroke-width:0.5;" width="4" x="187.5654" y="270.6094"/><text fill="#000000" font-family="sans-serif" font-size="14" lengthAdjust="spacing" textLength="57.5654" x="127" y="294.1426">Web GUI</text></g><!--entity API--><g class="entity" data-qualified-name="API" data-source-line="8" id="ent0003"><rect fill="#F1F1F1" height="47.6094" rx="2.5" ry="2.5" style="stroke:#181818;stroke-width:0.5;" width="104.5859" x="270" y="117.6094"/><rect fill="#F1F1F1" height="10" style="stroke:#181818;stroke-width:0.5;" width="15" x="354.5859" y="122.6094"/><rect fill="#F1F1F1" height="2" style="stroke:#181818;stroke-width:0.5;" width="4" x="352.5859" y="124.6094"/><rect fill="#F1F1F1" height="2" style="stroke:#181818;stroke-width:0.5;" width="4" x="352.5859" y="128.6094"/><text fill="#000000" font-family="sans-serif" font-size="14" lengthAdjust="spacing" textLength="64.5859" x="285" y="152.1426">Public API</text></g><!--entity Designer--><g class="entity" data-qualified-name="Designer" data-source-line="9" id="ent0004"><rect fill="#F1F1F1" height="47.6094" rx="2.5" ry="2.5" style="stroke:#181818;stroke-width:0.5;" width="157.4756" x="507" y="57.6094"/><rect fill="#F1F1F1" height="10" style="stroke:#181818;stroke-width:0.5;" width="15" x="644.4756" y="62.6094"/><rect fill="#F1F1F1" height="2" style="stroke:#181818;stroke-width:0.5;" width="4" x="642.4756" y="64.6094"/><rect fill="#F1F1F1" height="2" style="stroke:#181818;stroke-width:0.5;" width="4" x="642.4756" y="68.6094"/><text fill="#000000" font-family="sans-serif" font-size="14" lengthAdjust="spacing" textLength="117.4756" x="522" y="92.1426">Workflow Designer</text></g><!--entity Runtime--><g class="entity" data-qualified-name="Runtime" data-source-line="10" id="ent0005"><rect fill="#F1F1F1" height="47.6094" rx="2.5" ry="2.5" style="stroke:#181818;stroke-width:0.5;" width="153.5791" x="508.5" y="176.6094"/><rect fill="#F1F1F1" height="10" style="stroke:#181818;stroke-width:0.5;" width="15" x="642.0791" y="181.6094"/><rect fill="#F1F1F1" height="2" style="stroke:#181818;stroke-width:0.5;" width="4" x="640.0791" y="183.6094"/><rect fill="#F1F1F1" height="2" style="stroke:#181818;stroke-width:0.5;" width="4" x="640.0791" y="187.6094"/><text fill="#000000" font-family="sans-serif" font-size="14" lengthAdjust="spacing" textLength="113.5791" x="523.5" y="211.1426">Workflow Runtime</text></g><!--entity Evidence--><g class="entity" data-qualified-name="Evidence" data-source-line="11" id="ent0006"><rect fill="#F1F1F1" height="47.6094" rx="2.5" ry="2.5" style="stroke:#181818;stroke-width:0.5;" width="148.165" x="796.5" y="211.6094"/><rect fill="#F1F1F1" height="10" style="stroke:#181818;stroke-width:0.5;" width="15" x="924.665" y="216.6094"/><rect fill="#F1F1F1" height="2" style="stroke:#181818;stroke-width:0.5;" width="4" x="922.665" y="218.6094"/><rect fill="#F1F1F1" height="2" style="stroke:#181818;stroke-width:0.5;" width="4" x="922.665" y="222.6094"/><text fill="#000000" font-family="sans-serif" font-size="14" lengthAdjust="spacing" textLength="108.165" x="811.5" y="246.1426">Evidence Service</text></g><!--entity Model--><g class="entity" data-qualified-name="Model" data-source-line="12" id="ent0007"><rect fill="#F1F1F1" height="47.6094" rx="2.5" ry="2.5" style="stroke:#181818;stroke-width:0.5;" width="137.2686" x="802" y="294.6094"/><rect fill="#F1F1F1" height="10" style="stroke:#181818;stroke-width:0.5;" width="15" x="919.2686" y="299.6094"/><rect fill="#F1F1F1" height="2" style="stroke:#181818;stroke-width:0.5;" width="4" x="917.2686" y="301.6094"/><rect fill="#F1F1F1" height="2" style="stroke:#181818;stroke-width:0.5;" width="4" x="917.2686" y="305.6094"/><text fill="#000000" font-family="sans-serif" font-size="14" lengthAdjust="spacing" textLength="97.2686" x="817" y="329.1426">Model Gateway</text></g><!--entity Report--><g class="entity" data-qualified-name="Report" data-source-line="13" id="ent0008"><rect fill="#F1F1F1" height="47.6094" rx="2.5" ry="2.5" style="stroke:#181818;stroke-width:0.5;" width="148.9648" x="796" y="128.6094"/><rect fill="#F1F1F1" height="10" style="stroke:#181818;stroke-width:0.5;" width="15" x="924.9648" y="133.6094"/><rect fill="#F1F1F1" height="2" style="stroke:#181818;stroke-width:0.5;" width="4" x="922.9648" y="135.6094"/><rect fill="#F1F1F1" height="2" style="stroke:#181818;stroke-width:0.5;" width="4" x="922.9648" y="139.6094"/><text fill="#000000" font-family="sans-serif" font-size="14" lengthAdjust="spacing" textLength="108.9648" x="811" y="163.1426">Report &amp; Lineage</text></g><!--entity Repo--><g class="entity" data-qualified-name="Repo" data-source-line="14" id="ent0009"><rect fill="#F1F1F1" height="47.6094" rx="2.5" ry="2.5" style="stroke:#181818;stroke-width:0.5;" width="177.7236" x="1022.5" y="45.6094"/><rect fill="#F1F1F1" height="10" style="stroke:#181818;stroke-width:0.5;" width="15" x="1180.2236" y="50.6094"/><rect fill="#F1F1F1" height="2" style="stroke:#181818;stroke-width:0.5;" width="4" x="1178.2236" y="52.6094"/><rect fill="#F1F1F1" height="2" style="stroke:#181818;stroke-width:0.5;" width="4" x="1178.2236" y="56.6094"/><text fill="#000000" font-family="sans-serif" font-size="14" lengthAdjust="spacing" textLength="137.7236" x="1037.5" y="80.1426">Ownership Repository</text></g><!--entity Events--><g class="entity" data-qualified-name="Events" data-source-line="15" id="ent0010"><rect fill="#F1F1F1" height="47.6094" rx="2.5" ry="2.5" style="stroke:#181818;stroke-width:0.5;" width="139.5996" x="800.5" y="377.6094"/><rect fill="#F1F1F1" height="10" style="stroke:#181818;stroke-width:0.5;" width="15" x="920.0996" y="382.6094"/><rect fill="#F1F1F1" height="2" style="stroke:#181818;stroke-width:0.5;" width="4" x="918.0996" y="384.6094"/><rect fill="#F1F1F1" height="2" style="stroke:#181818;stroke-width:0.5;" width="4" x="918.0996" y="388.6094"/><text fill="#000000" font-family="sans-serif" font-size="14" lengthAdjust="spacing" textLength="99.5996" x="815.5" y="412.1426">Event Transport</text></g><!--entity Artifacts--><g class="entity" data-qualified-name="Artifacts" data-source-line="16" id="ent0011"><rect fill="#F1F1F1" height="47.6094" rx="2.5" ry="2.5" style="stroke:#181818;stroke-width:0.5;" width="120.917" x="1051" y="128.6094"/><rect fill="#F1F1F1" height="10" style="stroke:#181818;stroke-width:0.5;" width="15" x="1151.917" y="133.6094"/><rect fill="#F1F1F1" height="2" style="stroke:#181818;stroke-width:0.5;" width="4" x="1149.917" y="135.6094"/><rect fill="#F1F1F1" height="2" style="stroke:#181818;stroke-width:0.5;" width="4" x="1149.917" y="139.6094"/><text fill="#000000" font-family="sans-serif" font-size="14" lengthAdjust="spacing" textLength="80.917" x="1066" y="163.1426">Artifact Store</text></g><!--entity ExtEvidence--><g class="entity" data-qualified-name="ExtEvidence" data-source-line="17" id="ent0012"><rect fill="#F1F1F1" height="47.6094" rx="2.5" ry="2.5" style="stroke:#181818;stroke-width:0.5;" width="212.7646" x="1005" y="211.6094"/><rect fill="#F1F1F1" height="10" style="stroke:#181818;stroke-width:0.5;" width="15" x="1197.7646" y="216.6094"/><rect fill="#F1F1F1" height="2" style="stroke:#181818;stroke-width:0.5;" width="4" x="1195.7646" y="218.6094"/><rect fill="#F1F1F1" height="2" style="stroke:#181818;stroke-width:0.5;" width="4" x="1195.7646" y="222.6094"/><text fill="#000000" font-family="sans-serif" font-size="14" lengthAdjust="spacing" textLength="172.7646" x="1020" y="246.1426">External Evidence Adapters</text></g><!--entity ExtModel--><g class="entity" data-qualified-name="ExtModel" data-source-line="18" id="ent0013"><rect fill="#F1F1F1" height="47.6094" rx="2.5" ry="2.5" style="stroke:#181818;stroke-width:0.5;" width="193.3027" x="1015" y="294.6094"/><rect fill="#F1F1F1" height="10" style="stroke:#181818;stroke-width:0.5;" width="15" x="1188.3027" y="299.6094"/><rect fill="#F1F1F1" height="2" style="stroke:#181818;stroke-width:0.5;" width="4" x="1186.3027" y="301.6094"/><rect fill="#F1F1F1" height="2" style="stroke:#181818;stroke-width:0.5;" width="4" x="1186.3027" y="305.6094"/><text fill="#000000" font-family="sans-serif" font-size="14" lengthAdjust="spacing" textLength="153.3027" x="1030" y="329.1426">External Model Adapters</text></g><g class="entity" data-qualified-name="GMN31" data-source-line="37" id="ent0032"><path d="M435,260.1094 L435,302.8125 A0,0 0 0 0 435,302.8125 L736.395,302.8125 A0,0 0 0 0 736.395,302.8125 L736.395,270.1094 L726.395,260.1094 L590,260.1094 L586,224.9094 L582,260.1094 L435,260.1094 A0,0 0 0 0 435,260.1094" fill="#FEFFDD" style="stroke:#181818;stroke-width:0.5;"/><path d="M726.395,260.1094 L726.395,270.1094 L736.395,270.1094 L726.395,260.1094" fill="#FEFFDD" style="stroke:#181818;stroke-width:0.5;"/><text fill="#000000" font-family="sans-serif" font-size="13" lengthAdjust="spacing" textLength="272.4097" x="441" y="278.6045">Owns validation, readiness, joins, failure policy,</text><text fill="#000000" font-family="sans-serif" font-size="13" lengthAdjust="spacing" textLength="280.395" x="441" y="294.9561">budgets, checkpoints, and legal state transitions.</text></g><!--link Analyst to GUI--><g class="link" data-entity-1="ent0001" data-entity-2="ent0002" data-link-type="dependency" data-source-line="19" id="lnk14"><path d="M52.3,283.6094 C68.8,283.6094 86.55,283.6094 106.97,283.6094" fill="none" id="Analyst-to-GUI" style="stroke:#181818;stroke-width:1;"/><polygon fill="#181818" points="111.97,283.6094,102.97,279.6094,106.97,283.6094,102.97,287.6094,111.97,283.6094" style="stroke:#181818;stroke-width:1;stroke-linejoin:miter;stroke-miterlimit:10;"/></g><!--link GUI to API--><g class="link" data-entity-1="ent0002" data-entity-2="ent0003" data-link-type="dependency" data-source-line="20" id="lnk15"><path d="M161,259.5194 C161,219.0094 161,141.6094 161,141.6094 C161,141.6094 217.52,141.6094 264.62,141.6094" fill="none" id="GUI-to-API" style="stroke:#181818;stroke-width:1;stroke-dasharray:7,7;"/><polygon fill="#181818" points="269.62,141.6094,260.62,137.6094,264.62,141.6094,260.62,145.6094,269.62,141.6094" style="stroke:#181818;stroke-width:1;stroke-linejoin:miter;stroke-miterlimit:10;"/><text fill="#000000" font-family="sans-serif" font-size="13" lengthAdjust="spacing" textLength="66.4727" x="94" y="160.7545">&#171;IUserAPI&#187;</text></g><!--link API to Designer--><g class="link" data-entity-1="ent0003" data-entity-2="ent0004" data-link-type="dependency" data-source-line="21" id="lnk16"><path d="M323,117.5494 C323,100.8594 323,81.6094 323,81.6094 C323,81.6094 424.42,81.6094 501.74,81.6094" fill="none" id="API-to-Designer" style="stroke:#181818;stroke-width:1;stroke-dasharray:7,7;"/><polygon fill="#181818" points="506.74,81.6094,497.74,77.6094,501.74,81.6094,497.74,85.6094,506.74,81.6094" style="stroke:#181818;stroke-width:1;stroke-linejoin:miter;stroke-miterlimit:10;"/><text fill="#000000" font-family="sans-serif" font-size="13" lengthAdjust="spacing" textLength="99.6899" x="296.9" y="96.1045">&#171;IWorkflowDraft&#187;</text></g><!--link API to Runtime--><g class="link" data-entity-1="ent0003" data-entity-2="ent0005" data-link-type="dependency" data-source-line="22" id="lnk17"><path d="M323,165.9494 C323,182.1994 323,200.6094 323,200.6094 C323,200.6094 425.73,200.6094 503.16,200.6094" fill="none" id="API-to-Runtime" style="stroke:#181818;stroke-width:1;stroke-dasharray:7,7;"/><polygon fill="#181818" points="508.16,200.6094,499.16,196.6094,503.16,200.6094,499.16,204.6094,508.16,200.6094" style="stroke:#181818;stroke-width:1;stroke-linejoin:miter;stroke-miterlimit:10;"/><text fill="#000000" font-family="sans-serif" font-size="13" lengthAdjust="spacing" textLength="101.8862" x="296.25" y="215.1045">&#171;IRunCommand&#187;</text></g><!--link GUI to Events--><g class="link" data-entity-1="ent0002" data-entity-2="ent0010" data-link-type="dependency" data-source-line="23" id="lnk18"><path d="M161,307.8994 C161,344.5194 161,409.6094 161,409.6094 C161,409.6094 615.97,409.6094 795.2,409.6094" fill="none" id="GUI-to-Events" style="stroke:#181818;stroke-width:1;stroke-dasharray:7,7;"/><polygon fill="#181818" points="800.2,409.6094,791.2,405.6094,795.2,409.6094,791.2,413.6094,800.2,409.6094" style="stroke:#181818;stroke-width:1;stroke-linejoin:miter;stroke-miterlimit:10;"/><text fill="#000000" font-family="sans-serif" font-size="13" lengthAdjust="spacing" textLength="75.1626" x="353.75" y="424.1045">&#171;IRunEvent&#187;</text></g><!--link Runtime to Events--><g class="link" data-entity-1="ent0005" data-entity-2="ent0010" data-link-type="dependency" data-source-line="24" id="lnk19"><path d="M662.77,221.3594 C707.88,221.3594 756,221.3594 756,221.3594 C756,221.3594 756,393.6094 756,393.6094 C756,393.6094 771.57,393.6094 795.27,393.6094" fill="none" id="Runtime-to-Events" style="stroke:#181818;stroke-width:1;stroke-dasharray:7,7;"/><polygon fill="#181818" points="800.27,393.6094,791.27,389.6094,795.27,393.6094,791.27,397.6094,800.27,393.6094" style="stroke:#181818;stroke-width:1;stroke-linejoin:miter;stroke-miterlimit:10;"/><text fill="#000000" font-family="sans-serif" font-size="13" lengthAdjust="spacing" textLength="119.9707" x="757" y="279.4945">&#171;IRunEvent&#187; publish</text></g><!--link Runtime to Evidence--><g class="link" data-entity-1="ent0005" data-entity-2="ent0006" data-link-type="dependency" data-source-line="25" id="lnk20"><path d="M662.63,214.8594 C704.17,214.8594 750.17,214.8594 791.26,214.8594" fill="none" id="Runtime-to-Evidence" style="stroke:#181818;stroke-width:1;stroke-dasharray:7,7;"/><polygon fill="#181818" points="796.26,214.8594,787.26,210.8594,791.26,214.8594,787.26,218.8594,796.26,214.8594" style="stroke:#181818;stroke-width:1;stroke-linejoin:miter;stroke-miterlimit:10;"/><text fill="#000000" font-family="sans-serif" font-size="13" lengthAdjust="spacing" textLength="71.5508" x="730.45" y="211.3545">&#171;IEvidence&#187;</text></g><!--link Runtime to Model--><g class="link" data-entity-1="ent0005" data-entity-2="ent0007" data-link-type="dependency" data-source-line="26" id="lnk21"><path d="M662.71,218.1094 C715.52,218.1094 776,218.1094 776,218.1094 C776,218.1094 776,298.8594 776,298.8594 C776,298.8594 782.17,298.8594 796.82,298.8594" fill="none" id="Runtime-to-Model" style="stroke:#181818;stroke-width:1;stroke-dasharray:7,7;"/><polygon fill="#181818" points="801.82,298.8594,792.82,294.8594,796.82,298.8594,792.82,302.8594,801.82,298.8594" style="stroke:#181818;stroke-width:1;stroke-linejoin:miter;stroke-miterlimit:10;"/><text fill="#000000" font-family="sans-serif" font-size="13" lengthAdjust="spacing" textLength="53.479" x="718.64" y="232.6045">&#171;IModel&#187;</text></g><!--link Runtime to Report--><g class="link" data-entity-1="ent0005" data-entity-2="ent0008" data-link-type="dependency" data-source-line="27" id="lnk22"><path d="M586,176.5194 C586,173.3194 586,171.1094 586,171.1094 C586,171.1094 706.46,171.1094 790.75,171.1094" fill="none" id="Runtime-to-Report" style="stroke:#181818;stroke-width:1;stroke-dasharray:7,7;"/><polygon fill="#181818" points="795.75,171.1094,786.75,167.1094,790.75,171.1094,786.75,175.1094,795.75,171.1094" style="stroke:#181818;stroke-width:1;stroke-linejoin:miter;stroke-miterlimit:10;"/><text fill="#000000" font-family="sans-serif" font-size="13" lengthAdjust="spacing" textLength="57.0908" x="689.17" y="185.6045">&#171;IReport&#187;</text></g><!--link API to Repo--><g class="link" data-entity-1="ent0003" data-entity-2="ent0009" data-link-type="dependency" data-source-line="28" id="lnk23"><path d="M375.1,123.1094 C539.06,123.1094 1030,123.1094 1030,123.1094 C1030,123.1094 1030,113.0094 1030,98.8594" fill="none" id="API-to-Repo" style="stroke:#181818;stroke-width:1;stroke-dasharray:7,7;"/><polygon fill="#181818" points="1030,93.8594,1026,102.8594,1030,98.8594,1034,102.8594,1030,93.8594" style="stroke:#181818;stroke-width:1;stroke-linejoin:miter;stroke-miterlimit:10;"/><text fill="#000000" font-family="sans-serif" font-size="13" lengthAdjust="spacing" textLength="80.209" x="636.18" y="137.6045">&#171;IRepository&#187;</text></g><!--link Designer to Repo--><g class="link" data-entity-1="ent0004" data-entity-2="ent0009" data-link-type="dependency" data-source-line="29" id="lnk24"><path d="M664.25,69.6094 C760.11,69.6094 916.62,69.6094 1017.07,69.6094" fill="none" id="Designer-to-Repo" style="stroke:#181818;stroke-width:1;stroke-dasharray:7,7;"/><polygon fill="#181818" points="1022.07,69.6094,1013.07,65.6094,1017.07,69.6094,1013.07,73.6094,1022.07,69.6094" style="stroke:#181818;stroke-width:1;stroke-linejoin:miter;stroke-miterlimit:10;"/><text fill="#000000" font-family="sans-serif" font-size="13" lengthAdjust="spacing" textLength="80.209" x="762.16" y="84.1045">&#171;IRepository&#187;</text></g><!--link Runtime to Repo--><g class="link" data-entity-1="ent0005" data-entity-2="ent0009" data-link-type="dependency" data-source-line="30" id="lnk25"><path d="M662.5,194.1094 C793.1,194.1094 1044,194.1094 1044,194.1094 C1044,194.1094 1044,134.7894 1044,98.6094" fill="none" id="Runtime-to-Repo" style="stroke:#181818;stroke-width:1;stroke-dasharray:7,7;"/><polygon fill="#181818" points="1044,93.6094,1040,102.6094,1044,98.6094,1048,102.6094,1044,93.6094" style="stroke:#181818;stroke-width:1;stroke-linejoin:miter;stroke-miterlimit:10;"/><text fill="#000000" font-family="sans-serif" font-size="13" lengthAdjust="spacing" textLength="80.209" x="822.5" y="208.6045">&#171;IRepository&#187;</text></g><!--link Evidence to Repo--><g class="link" data-entity-1="ent0006" data-entity-2="ent0009" data-link-type="dependency" data-source-line="31" id="lnk26"><path d="M944.77,227.6094 C961.8,227.6094 975,227.6094 975,227.6094 C975,227.6094 975,81.6094 975,81.6094 C975,81.6094 991.46,81.6094 1017.36,81.6094" fill="none" id="Evidence-to-Repo" style="stroke:#181818;stroke-width:1;stroke-dasharray:7,7;"/><polygon fill="#181818" points="1022.36,81.6094,1013.36,77.6094,1017.36,81.6094,1013.36,85.6094,1022.36,81.6094" style="stroke:#181818;stroke-width:1;stroke-linejoin:miter;stroke-miterlimit:10;"/><text fill="#000000" font-family="sans-serif" font-size="13" lengthAdjust="spacing" textLength="80.209" x="976" y="160.5345">&#171;IRepository&#187;</text></g><!--link Report to Repo--><g class="link" data-entity-1="ent0008" data-entity-2="ent0009" data-link-type="dependency" data-source-line="32" id="lnk27"><path d="M945.47,144.6094 C989.66,144.6094 1037,144.6094 1037,144.6094 C1037,144.6094 1037,120.6794 1037,98.7494" fill="none" id="Report-to-Repo" style="stroke:#181818;stroke-width:1;stroke-dasharray:7,7;"/><polygon fill="#181818" points="1037,93.7494,1033,102.7494,1037,98.7494,1041,102.7494,1037,93.7494" style="stroke:#181818;stroke-width:1;stroke-linejoin:miter;stroke-miterlimit:10;"/><text fill="#000000" font-family="sans-serif" font-size="13" lengthAdjust="spacing" textLength="80.209" x="935.66" y="141.1045">&#171;IRepository&#187;</text></g><!--link Evidence to ExtEvidence--><g class="link" data-entity-1="ent0006" data-entity-2="ent0012" data-link-type="dependency" data-source-line="33" id="lnk28"><path d="M944.77,243.6094 C963.72,243.6094 979.47,243.6094 999.69,243.6094" fill="none" id="Evidence-to-ExtEvidence" style="stroke:#181818;stroke-width:1;stroke-dasharray:7,7;"/><polygon fill="#181818" points="1004.69,243.6094,995.69,239.6094,999.69,243.6094,995.69,247.6094,1004.69,243.6094" style="stroke:#181818;stroke-width:1;stroke-linejoin:miter;stroke-miterlimit:10;"/><text fill="#000000" font-family="sans-serif" font-size="13" lengthAdjust="spacing" textLength="58.5508" x="915.73" y="258.1045">&#171;adapter&#187;</text></g><!--link Model to ExtModel--><g class="link" data-entity-1="ent0007" data-entity-2="ent0013" data-link-type="dependency" data-source-line="34" id="lnk29"><path d="M939.24,318.6094 C962.75,318.6094 984.51,318.6094 1009.81,318.6094" fill="none" id="Model-to-ExtModel" style="stroke:#181818;stroke-width:1;stroke-dasharray:7,7;"/><polygon fill="#181818" points="1014.81,318.6094,1005.81,314.6094,1009.81,318.6094,1005.81,322.6094,1014.81,318.6094" style="stroke:#181818;stroke-width:1;stroke-linejoin:miter;stroke-miterlimit:10;"/><text fill="#000000" font-family="sans-serif" font-size="13" lengthAdjust="spacing" textLength="58.5508" x="918.02" y="333.1045">&#171;adapter&#187;</text></g><!--link Report to Artifacts--><g class="link" data-entity-1="ent0008" data-entity-2="ent0011" data-link-type="dependency" data-source-line="35" id="lnk30"><path d="M945.1,160.6094 C979.11,160.6094 1013.85,160.6094 1045.97,160.6094" fill="none" id="Report-to-Artifacts" style="stroke:#181818;stroke-width:1;stroke-dasharray:7,7;"/><polygon fill="#181818" points="1050.97,160.6094,1041.97,156.6094,1045.97,160.6094,1041.97,164.6094,1050.97,160.6094" style="stroke:#181818;stroke-width:1;stroke-linejoin:miter;stroke-miterlimit:10;"/><text fill="#000000" font-family="sans-serif" font-size="13" lengthAdjust="spacing" textLength="58.5254" x="939.03" y="175.1045">&#171;IArtifact&#187;</text></g><?plantuml-src ZPJ1Rjim343l_WgYXvsI7dOSYW31MXG1MhHe5kois7JCHPOCYKdglnybsOuIPCKEXaJoYQH8oaoi4TvQGx-SgX2MAvZ3vlK5Ijjsrg1XgD3Jpi29k04oZAvM9Vf2Oyt05Xpj6e78OSbaJU7tP3hbL0k-KPKzaTb1hRJ7pAB98FSTWdNSsCmmHLrpBtaTMlszK2LR1qkZTE-vEETrznktyBnPtO7oOSrDxuUjfXAMxyagwyL1w_QrjYTuZ5T35w5Hk4b-70nJYn4SzZdtTAGAJOcmHdUaCd6ZCWTVROKQdXNZIVMHYfeS-S1EoWBVu4Mgf7P3pAZCiRUJvEeRwgBDanIfdz3BtC8YxJK--1XI4vtFgQLZaiOohCLHYZcgBhYdJva0wSLqErXMgXETJuu_-TQrfrFf_jT7KWs65iDyleZzb0_kxnUXU_037XvM6uzEXCMY2AfW6dkMx6Et7fsgEQE6XYL8X9-sRPMfX1X3f7fCG1J5F1xyDm9Tc3JVNA53QI8yIbV-KYKY4RTNvc4AKhYupoyaYhCfzLxCKpM-OAvZt42czBzoazBxNo_PM4HKfG4GB9LXOCurEGDPf6aWKxXH5CXOHjXQPjk2hQSNAc_4mr5fgbJuDyt0eQhaLNa_Wp-MZ2or8drm29sL7qO_AxQ7QeSiXhB1Sjy950IP5j2uam7sB6yNEBmc2ZxzVO5Y30dy1G00?></g></svg>