<svg xmlns="http://www.w3.org/2000/svg" xmlns:xlink="http://www.w3.org/1999/xlink" contentStyleType="text/css" data-diagram-type="ACTIVITY" height="1219px" preserveAspectRatio="none" style="width:1223px;height:1219px;background:#FFFFFF;" version="1.1" viewBox="0 0 1223 1219" width="1223px" zoomAndPan="magnify"><?plantuml 1.2026.6?><defs/><g><g class="title" data-source-line="1"><text fill="#000000" font-family="sans-serif" font-size="14" font-weight="700" lengthAdjust="spacing" textLength="379.6543" x="420.7839" y="34.5332">XP increment with test-driven development and evidence</text></g><rect fill="none" height="22.6406" style="stroke:none;stroke-width:1;" width="1176.2222" x="20" y="56.0645"/><ellipse cx="239.8511" cy="93.7051" fill="#222222" rx="10" ry="10" style="stroke:#222222;stroke-width:1;"/><rect fill="#F1F1F1" height="35.0938" rx="12.5" ry="12.5" style="stroke:#181818;stroke-width:0.5;" width="178.7363" x="150.4829" y="123.7051"/><text fill="#000000" font-family="sans-serif" font-size="12" lengthAdjust="spacing" textLength="158.7363" x="160.4829" y="146.1621">Select ready story and priority</text><rect fill="#F1F1F1" height="35.0938" rx="12.5" ry="12.5" style="stroke:#181818;stroke-width:0.5;" width="170.6738" x="154.5142" y="178.7988"/><text fill="#000000" font-family="sans-serif" font-size="12" lengthAdjust="spacing" textLength="150.6738" x="164.5142" y="201.2559">Confirm UR / FR / NFR links</text><rect fill="#F1F1F1" height="35.0938" rx="12.5" ry="12.5" style="stroke:#181818;stroke-width:0.5;" width="219.4297" x="130.1362" y="233.8926"/><text fill="#000000" font-family="sans-serif" font-size="12" lengthAdjust="spacing" textLength="199.4297" x="140.1362" y="256.3496">Write examples and acceptance tests</text><rect fill="#F1F1F1" height="35.0938" rx="12.5" ry="12.5" style="stroke:#181818;stroke-width:0.5;" width="154.7305" x="39.6846" y="1049.9238"/><text fill="#000000" font-family="sans-serif" font-size="12" lengthAdjust="spacing" textLength="134.7305" x="49.6846" y="1072.3809">Review and retrospective</text><rect fill="#F1F1F1" height="35.0938" rx="12.5" ry="12.5" style="stroke:#181818;stroke-width:0.5;" width="182.0996" x="26" y="1105.0176"/><text fill="#000000" font-family="sans-serif" font-size="12" lengthAdjust="spacing" textLength="162.0996" x="36" y="1127.4746">Update backlog and next story</text><ellipse cx="117.0498" cy="1171.1113" fill="none" rx="11" ry="11" style="stroke:#222222;stroke-width:1;"/><ellipse cx="117.0498" cy="1171.1113" fill="#222222" rx="6" ry="6" style="stroke:#222222;stroke-width:1;"/><rect fill="#F1F1F1" height="35.0938" rx="12.5" ry="12.5" style="stroke:#181818;stroke-width:0.5;" width="162.0664" x="281.6191" y="994.8301"/><text fill="#000000" font-family="sans-serif" font-size="12" lengthAdjust="spacing" textLength="142.0664" x="291.6191" y="1017.2871">Return story with feedback</text><rect fill="#F1F1F1" height="35.0938" rx="12.5" ry="12.5" style="stroke:#181818;stroke-width:0.5;" width="253.1094" x="236.0977" y="1049.9238"/><text fill="#000000" font-family="sans-serif" font-size="12" lengthAdjust="spacing" textLength="233.1094" x="246.0977" y="1072.3809">left-&gt; Write examples and acceptance tests;</text><line style="stroke:#000000;stroke-width:1.5;" x1="20" x2="20" y1="56.0645" y2="1198.1113"/><rect fill="#F1F1F1" height="35.0938" rx="12.5" ry="12.5" style="stroke:#181818;stroke-width:0.5;" width="183.3887" x="646.8154" y="288.9863"/><text fill="#000000" font-family="sans-serif" font-size="12" lengthAdjust="spacing" textLength="163.3887" x="656.8154" y="311.4434">Model risky behavior with UML</text><rect fill="#F1F1F1" height="35.0938" rx="12.5" ry="12.5" style="stroke:#181818;stroke-width:0.5;" width="189.3652" x="643.8271" y="344.0801"/><text fill="#000000" font-family="sans-serif" font-size="12" lengthAdjust="spacing" textLength="169.3652" x="653.8271" y="366.5371">Write smallest failing test (RED)</text><polygon fill="#F1F1F1" points="673.6968,399.1738,803.3228,399.1738,815.3228,411.1738,803.3228,423.1738,673.6968,423.1738,661.6968,411.1738,673.6968,399.1738" style="stroke:#181818;stroke-width:0.5;stroke-linejoin:miter;stroke-miterlimit:10;"/><text fill="#000000" font-family="sans-serif" font-size="11" lengthAdjust="spacing" textLength="129.626" x="673.6968" y="415.6748">Fails for expected reason?</text><text fill="#000000" font-family="sans-serif" font-size="11" lengthAdjust="spacing" textLength="17.1177" x="644.5791" y="408.7568">yes</text><text fill="#000000" font-family="sans-serif" font-size="11" lengthAdjust="spacing" textLength="12.2354" x="815.3228" y="408.7568">no</text><rect fill="#F1F1F1" height="35.0938" rx="12.5" ry="12.5" style="stroke:#181818;stroke-width:0.5;" width="231.3887" x="499.207" y="433.1738"/><text fill="#000000" font-family="sans-serif" font-size="12" lengthAdjust="spacing" textLength="211.3887" x="509.207" y="455.6309">Implement minimum behavior (GREEN)</text><rect fill="#F1F1F1" height="35.0938" rx="12.5" ry="12.5" style="stroke:#181818;stroke-width:0.5;" width="163.3848" x="780.4258" y="433.1738"/><text fill="#000000" font-family="sans-serif" font-size="12" lengthAdjust="spacing" textLength="143.3848" x="790.4258" y="455.6309">Correct test or requirement</text><rect fill="#F1F1F1" height="35.0938" rx="12.5" ry="12.5" style="stroke:#181818;stroke-width:0.5;" width="223.0449" x="750.5957" y="488.2676"/><text fill="#000000" font-family="sans-serif" font-size="12" lengthAdjust="spacing" textLength="203.0449" x="760.5957" y="510.7246">left-&gt; Write smallest failing test (RED);</text><polygon fill="#F1F1F1" points="738.5098,529.3613,750.5098,541.3613,738.5098,553.3613,726.5098,541.3613,738.5098,529.3613" style="stroke:#181818;stroke-width:0.5;stroke-linejoin:miter;stroke-miterlimit:10;"/><polygon fill="#F1F1F1" points="688.0671,573.3613,788.9524,573.3613,800.9524,585.3613,788.9524,597.3613,688.0671,597.3613,676.0671,585.3613,688.0671,573.3613" style="stroke:#181818;stroke-width:0.5;stroke-linejoin:miter;stroke-miterlimit:10;"/><text fill="#000000" font-family="sans-serif" font-size="11" lengthAdjust="spacing" textLength="100.8853" x="688.0671" y="589.8623">Focused tests pass?</text><text fill="#000000" font-family="sans-serif" font-size="11" lengthAdjust="spacing" textLength="17.1177" x="658.9495" y="582.9443">yes</text><text fill="#000000" font-family="sans-serif" font-size="11" lengthAdjust="spacing" textLength="12.2354" x="800.9524" y="582.9443">no</text><rect fill="#F1F1F1" height="35.0938" rx="12.5" ry="12.5" style="stroke:#181818;stroke-width:0.5;" width="156.7578" x="544.6743" y="607.3613"/><text fill="#000000" font-family="sans-serif" font-size="12" lengthAdjust="spacing" textLength="136.7578" x="554.6743" y="629.8184">Refactor design and code</text><rect fill="#F1F1F1" height="35.0938" rx="12.5" ry="12.5" style="stroke:#181818;stroke-width:0.5;" width="265.0684" x="721.4321" y="607.3613"/><text fill="#000000" font-family="sans-serif" font-size="12" lengthAdjust="spacing" textLength="245.0684" x="731.4321" y="629.8184">left-&gt; Implement minimum behavior (GREEN);</text><polygon fill="#F1F1F1" points="738.5098,648.4551,750.5098,660.4551,738.5098,672.4551,726.5098,660.4551,738.5098,648.4551" style="stroke:#181818;stroke-width:0.5;stroke-linejoin:miter;stroke-miterlimit:10;"/><rect fill="#F1F1F1" height="50.1875" rx="12.5" ry="12.5" style="stroke:#181818;stroke-width:0.5;" width="180.0898" x="648.4648" y="692.4551"/><text fill="#000000" font-family="sans-serif" font-size="12" lengthAdjust="spacing" textLength="160.0898" x="658.4648" y="714.9121">Run unit, contract, integration,</text><text fill="#000000" font-family="sans-serif" font-size="12" lengthAdjust="spacing" textLength="151.4063" x="658.4648" y="730.0059">static and regression checks</text><polygon fill="#F1F1F1" points="690.2048,762.6426,786.8147,762.6426,798.8147,774.6426,786.8147,786.6426,690.2048,786.6426,678.2048,774.6426,690.2048,762.6426" style="stroke:#181818;stroke-width:0.5;stroke-linejoin:miter;stroke-miterlimit:10;"/><text fill="#000000" font-family="sans-serif" font-size="11" lengthAdjust="spacing" textLength="96.6099" x="690.2048" y="779.1436">Quality gates pass?</text><text fill="#000000" font-family="sans-serif" font-size="11" lengthAdjust="spacing" textLength="17.1177" x="661.0872" y="772.2256">yes</text><text fill="#000000" font-family="sans-serif" font-size="11" lengthAdjust="spacing" textLength="12.2354" x="798.8147" y="772.2256">no</text><rect fill="#F1F1F1" height="35.0938" rx="12.5" ry="12.5" style="stroke:#181818;stroke-width:0.5;" width="176.1055" x="773.4063" y="806.6426"/><text fill="#000000" font-family="sans-serif" font-size="12" lengthAdjust="spacing" textLength="156.1055" x="783.4063" y="829.0996">Diagnose failure and add test</text><rect fill="#F1F1F1" height="35.0938" rx="12.5" ry="12.5" style="stroke:#181818;stroke-width:0.5;" width="265.0684" x="728.9248" y="861.7363"/><text fill="#000000" font-family="sans-serif" font-size="12" lengthAdjust="spacing" textLength="245.0684" x="738.9248" y="884.1934">left-&gt; Implement minimum behavior (GREEN);</text><polygon fill="#F1F1F1" points="738.5098,906.8301,750.5098,918.8301,738.5098,930.8301,726.5098,918.8301,738.5098,906.8301" style="stroke:#181818;stroke-width:0.5;stroke-linejoin:miter;stroke-miterlimit:10;"/><polygon fill="#F1F1F1" points="687.7556,950.8301,789.2639,950.8301,801.2639,962.8301,789.2639,974.8301,687.7556,974.8301,675.7556,962.8301,687.7556,950.8301" style="stroke:#181818;stroke-width:0.5;stroke-linejoin:miter;stroke-miterlimit:10;"/><text fill="#000000" font-family="sans-serif" font-size="11" lengthAdjust="spacing" textLength="101.5083" x="687.7556" y="967.3311">Acceptance passes?</text><text fill="#000000" font-family="sans-serif" font-size="11" lengthAdjust="spacing" textLength="17.1177" x="658.6379" y="960.4131">yes</text><text fill="#000000" font-family="sans-serif" font-size="11" lengthAdjust="spacing" textLength="12.2354" x="801.2639" y="960.4131">no</text><rect fill="#F1F1F1" height="35.0938" rx="12.5" ry="12.5" style="stroke:#181818;stroke-width:0.5;" width="198.0957" x="516.6606" y="994.8301"/><text fill="#000000" font-family="sans-serif" font-size="12" lengthAdjust="spacing" textLength="178.0957" x="526.6606" y="1017.2871">Accept story and record evidence</text><line style="stroke:#000000;stroke-width:1.5;" x1="493.207" x2="493.207" y1="56.0645" y2="1198.1113"/><rect fill="#F1F1F1" height="35.0938" rx="12.5" ry="12.5" style="stroke:#181818;stroke-width:0.5;" width="186.7285" x="1003.9932" y="806.6426"/><text fill="#000000" font-family="sans-serif" font-size="12" lengthAdjust="spacing" textLength="166.7285" x="1013.9932" y="829.0996">Demonstrate story confirmation</text><line style="stroke:#000000;stroke-width:1.5;" x1="997.9932" x2="997.9932" y1="56.0645" y2="1198.1113"/><line style="stroke:#000000;stroke-width:1.5;" x1="1194.7217" x2="1194.7217" y1="56.0645" y2="1198.1113"/><line style="stroke:#181818;stroke-width:1;" x1="239.8511" x2="239.8511" y1="103.7051" y2="123.7051"/><polygon fill="#181818" points="235.8511,113.7051,239.8511,123.7051,243.8511,113.7051,239.8511,117.7051" style="stroke:#181818;stroke-width:1;stroke-linejoin:miter;stroke-miterlimit:10;"/><line style="stroke:#181818;stroke-width:1;" x1="239.8511" x2="239.8511" y1="158.7988" y2="178.7988"/><polygon fill="#181818" points="235.8511,168.7988,239.8511,178.7988,243.8511,168.7988,239.8511,172.7988" style="stroke:#181818;stroke-width:1;stroke-linejoin:miter;stroke-miterlimit:10;"/><line style="stroke:#181818;stroke-width:1;" x1="239.8511" x2="239.8511" y1="213.8926" y2="233.8926"/><polygon fill="#181818" points="235.8511,223.8926,239.8511,233.8926,243.8511,223.8926,239.8511,227.8926" style="stroke:#181818;stroke-width:1;stroke-linejoin:miter;stroke-miterlimit:10;"/><line style="stroke:#181818;stroke-width:1;" x1="117.0498" x2="117.0498" y1="1085.0176" y2="1105.0176"/><polygon fill="#181818" points="113.0498,1095.0176,117.0498,1105.0176,121.0498,1095.0176,117.0498,1099.0176" style="stroke:#181818;stroke-width:1;stroke-linejoin:miter;stroke-miterlimit:10;"/><line style="stroke:#181818;stroke-width:1;" x1="117.0498" x2="117.0498" y1="1140.1113" y2="1160.1113"/><polygon fill="#181818" points="113.0498,1150.1113,117.0498,1160.1113,121.0498,1150.1113,117.0498,1154.1113" style="stroke:#181818;stroke-width:1;stroke-linejoin:miter;stroke-miterlimit:10;"/><line style="stroke:#181818;stroke-width:1;" x1="362.6523" x2="362.6523" y1="1029.9238" y2="1049.9238"/><polygon fill="#181818" points="358.6523,1039.9238,362.6523,1049.9238,366.6523,1039.9238,362.6523,1043.9238" style="stroke:#181818;stroke-width:1;stroke-linejoin:miter;stroke-miterlimit:10;"/><line style="stroke:#181818;stroke-width:1;" x1="738.5098" x2="738.5098" y1="324.0801" y2="344.0801"/><polygon fill="#181818" points="734.5098,334.0801,738.5098,344.0801,742.5098,334.0801,738.5098,338.0801" style="stroke:#181818;stroke-width:1;stroke-linejoin:miter;stroke-miterlimit:10;"/><line style="stroke:#181818;stroke-width:1;" x1="862.1182" x2="862.1182" y1="468.2676" y2="488.2676"/><polygon fill="#181818" points="858.1182,478.2676,862.1182,488.2676,866.1182,478.2676,862.1182,482.2676" style="stroke:#181818;stroke-width:1;stroke-linejoin:miter;stroke-miterlimit:10;"/><line style="stroke:#181818;stroke-width:1;" x1="661.6968" x2="614.9014" y1="411.1738" y2="411.1738"/><line style="stroke:#181818;stroke-width:1;" x1="614.9014" x2="614.9014" y1="411.1738" y2="433.1738"/><polygon fill="#181818" points="610.9014,423.1738,614.9014,433.1738,618.9014,423.1738,614.9014,427.1738" style="stroke:#181818;stroke-width:1;stroke-linejoin:miter;stroke-miterlimit:10;"/><line style="stroke:#181818;stroke-width:1;" x1="815.3228" x2="862.1182" y1="411.1738" y2="411.1738"/><line style="stroke:#181818;stroke-width:1;" x1="862.1182" x2="862.1182" y1="411.1738" y2="433.1738"/><polygon fill="#181818" points="858.1182,423.1738,862.1182,433.1738,866.1182,423.1738,862.1182,427.1738" style="stroke:#181818;stroke-width:1;stroke-linejoin:miter;stroke-miterlimit:10;"/><line style="stroke:#181818;stroke-width:1;" x1="614.9014" x2="614.9014" y1="468.2676" y2="541.3613"/><line style="stroke:#181818;stroke-width:1;" x1="614.9014" x2="726.5098" y1="541.3613" y2="541.3613"/><polygon fill="#181818" points="716.5098,537.3613,726.5098,541.3613,716.5098,545.3613,720.5098,541.3613" style="stroke:#181818;stroke-width:1;stroke-linejoin:miter;stroke-miterlimit:10;"/><line style="stroke:#181818;stroke-width:1;" x1="862.1182" x2="862.1182" y1="523.3613" y2="541.3613"/><line style="stroke:#181818;stroke-width:1;" x1="862.1182" x2="750.5098" y1="541.3613" y2="541.3613"/><polygon fill="#181818" points="760.5098,537.3613,750.5098,541.3613,760.5098,545.3613,756.5098,541.3613" style="stroke:#181818;stroke-width:1;stroke-linejoin:miter;stroke-miterlimit:10;"/><line style="stroke:#181818;stroke-width:1;" x1="738.5098" x2="738.5098" y1="379.1738" y2="399.1738"/><polygon fill="#181818" points="734.5098,389.1738,738.5098,399.1738,742.5098,389.1738,738.5098,393.1738" style="stroke:#181818;stroke-width:1;stroke-linejoin:miter;stroke-miterlimit:10;"/><line style="stroke:#181818;stroke-width:1;" x1="676.0671" x2="623.0532" y1="585.3613" y2="585.3613"/><line style="stroke:#181818;stroke-width:1;" x1="623.0532" x2="623.0532" y1="585.3613" y2="607.3613"/><polygon fill="#181818" points="619.0532,597.3613,623.0532,607.3613,627.0532,597.3613,623.0532,601.3613" style="stroke:#181818;stroke-width:1;stroke-linejoin:miter;stroke-miterlimit:10;"/><line style="stroke:#181818;stroke-width:1;" x1="800.9524" x2="853.9663" y1="585.3613" y2="585.3613"/><line style="stroke:#181818;stroke-width:1;" x1="853.9663" x2="853.9663" y1="585.3613" y2="607.3613"/><polygon fill="#181818" points="849.9663,597.3613,853.9663,607.3613,857.9663,597.3613,853.9663,601.3613" style="stroke:#181818;stroke-width:1;stroke-linejoin:miter;stroke-miterlimit:10;"/><line style="stroke:#181818;stroke-width:1;" x1="623.0532" x2="623.0532" y1="642.4551" y2="660.4551"/><line style="stroke:#181818;stroke-width:1;" x1="623.0532" x2="726.5098" y1="660.4551" y2="660.4551"/><polygon fill="#181818" points="716.5098,656.4551,726.5098,660.4551,716.5098,664.4551,720.5098,660.4551" style="stroke:#181818;stroke-width:1;stroke-linejoin:miter;stroke-miterlimit:10;"/><line style="stroke:#181818;stroke-width:1;" x1="853.9663" x2="853.9663" y1="642.4551" y2="660.4551"/><line style="stroke:#181818;stroke-width:1;" x1="853.9663" x2="750.5098" y1="660.4551" y2="660.4551"/><polygon fill="#181818" points="760.5098,656.4551,750.5098,660.4551,760.5098,664.4551,756.5098,660.4551" style="stroke:#181818;stroke-width:1;stroke-linejoin:miter;stroke-miterlimit:10;"/><line style="stroke:#181818;stroke-width:1;" x1="738.5098" x2="738.5098" y1="553.3613" y2="573.3613"/><polygon fill="#181818" points="734.5098,563.3613,738.5098,573.3613,742.5098,563.3613,738.5098,567.3613" style="stroke:#181818;stroke-width:1;stroke-linejoin:miter;stroke-miterlimit:10;"/><line style="stroke:#181818;stroke-width:1;" x1="738.5098" x2="738.5098" y1="672.4551" y2="692.4551"/><polygon fill="#181818" points="734.5098,682.4551,738.5098,692.4551,742.5098,682.4551,738.5098,686.4551" style="stroke:#181818;stroke-width:1;stroke-linejoin:miter;stroke-miterlimit:10;"/><line style="stroke:#181818;stroke-width:1;" x1="861.459" x2="861.459" y1="841.7363" y2="861.7363"/><polygon fill="#181818" points="857.459,851.7363,861.459,861.7363,865.459,851.7363,861.459,855.7363" style="stroke:#181818;stroke-width:1;stroke-linejoin:miter;stroke-miterlimit:10;"/><line style="stroke:#181818;stroke-width:1;" x1="798.8147" x2="861.459" y1="774.6426" y2="774.6426"/><line style="stroke:#181818;stroke-width:1;" x1="861.459" x2="861.459" y1="774.6426" y2="806.6426"/><polygon fill="#181818" points="857.459,796.6426,861.459,806.6426,865.459,796.6426,861.459,800.6426" style="stroke:#181818;stroke-width:1;stroke-linejoin:miter;stroke-miterlimit:10;"/><line style="stroke:#181818;stroke-width:1;" x1="861.459" x2="861.459" y1="896.8301" y2="918.8301"/><line style="stroke:#181818;stroke-width:1;" x1="861.459" x2="750.5098" y1="918.8301" y2="918.8301"/><polygon fill="#181818" points="760.5098,914.8301,750.5098,918.8301,760.5098,922.8301,756.5098,918.8301" style="stroke:#181818;stroke-width:1;stroke-linejoin:miter;stroke-miterlimit:10;"/><line style="stroke:#181818;stroke-width:1;" x1="738.5098" x2="738.5098" y1="742.6426" y2="762.6426"/><polygon fill="#181818" points="734.5098,752.6426,738.5098,762.6426,742.5098,752.6426,738.5098,756.6426" style="stroke:#181818;stroke-width:1;stroke-linejoin:miter;stroke-miterlimit:10;"/><line style="stroke:#181818;stroke-width:1;" x1="675.7556" x2="615.7085" y1="962.8301" y2="962.8301"/><line style="stroke:#181818;stroke-width:1;" x1="615.7085" x2="615.7085" y1="962.8301" y2="994.8301"/><polygon fill="#181818" points="611.7085,984.8301,615.7085,994.8301,619.7085,984.8301,615.7085,988.8301" style="stroke:#181818;stroke-width:1;stroke-linejoin:miter;stroke-miterlimit:10;"/><line style="stroke:#181818;stroke-width:1;" x1="738.5098" x2="738.5098" y1="930.8301" y2="950.8301"/><polygon fill="#181818" points="734.5098,940.8301,738.5098,950.8301,742.5098,940.8301,738.5098,944.8301" style="stroke:#181818;stroke-width:1;stroke-linejoin:miter;stroke-miterlimit:10;"/><line style="stroke:#181818;stroke-width:1;" x1="239.8511" x2="239.8511" y1="268.9863" y2="273.9863"/><line style="stroke:#181818;stroke-width:1;" x1="239.8511" x2="738.5098" y1="273.9863" y2="273.9863"/><line style="stroke:#181818;stroke-width:1;" x1="738.5098" x2="738.5098" y1="273.9863" y2="288.9863"/><polygon fill="#181818" points="734.5098,278.9863,738.5098,288.9863,742.5098,278.9863,738.5098,282.9863" style="stroke:#181818;stroke-width:1;stroke-linejoin:miter;stroke-miterlimit:10;"/><line style="stroke:#181818;stroke-width:1;" x1="678.2048" x2="666.2048" y1="774.6426" y2="774.6426"/><line style="stroke:#181818;stroke-width:1;" x1="666.2048" x2="666.2048" y1="774.6426" y2="792.6426"/><line style="stroke:#181818;stroke-width:1;" x1="666.2048" x2="1097.3574" y1="792.6426" y2="792.6426"/><line style="stroke:#181818;stroke-width:1;" x1="1097.3574" x2="1097.3574" y1="792.6426" y2="806.6426"/><polygon fill="#181818" points="1093.3574,796.6426,1097.3574,806.6426,1101.3574,796.6426,1097.3574,800.6426" style="stroke:#181818;stroke-width:1;stroke-linejoin:miter;stroke-miterlimit:10;"/><line style="stroke:#181818;stroke-width:1;" x1="1097.3574" x2="1097.3574" y1="841.7363" y2="900.8301"/><line style="stroke:#181818;stroke-width:1;" x1="1097.3574" x2="708.5098" y1="900.8301" y2="900.8301"/><line style="stroke:#181818;stroke-width:1;" x1="708.5098" x2="708.5098" y1="900.8301" y2="918.8301"/><line style="stroke:#181818;stroke-width:1;" x1="708.5098" x2="726.5098" y1="918.8301" y2="918.8301"/><polygon fill="#181818" points="716.5098,914.8301,726.5098,918.8301,716.5098,922.8301,720.5098,918.8301" style="stroke:#181818;stroke-width:1;stroke-linejoin:miter;stroke-miterlimit:10;"/><line style="stroke:#181818;stroke-width:1;" x1="615.7085" x2="615.7085" y1="1029.9238" y2="1034.9238"/><line style="stroke:#181818;stroke-width:1;" x1="615.7085" x2="117.0498" y1="1034.9238" y2="1034.9238"/><line style="stroke:#181818;stroke-width:1;" x1="117.0498" x2="117.0498" y1="1034.9238" y2="1049.9238"/><polygon fill="#181818" points="113.0498,1039.9238,117.0498,1049.9238,121.0498,1039.9238,117.0498,1043.9238" style="stroke:#181818;stroke-width:1;stroke-linejoin:miter;stroke-miterlimit:10;"/><line style="stroke:#181818;stroke-width:1;" x1="801.2639" x2="813.2639" y1="962.8301" y2="962.8301"/><line style="stroke:#181818;stroke-width:1;" x1="813.2639" x2="813.2639" y1="962.8301" y2="980.8301"/><line style="stroke:#181818;stroke-width:1;" x1="813.2639" x2="362.6523" y1="980.8301" y2="980.8301"/><line style="stroke:#181818;stroke-width:1;" x1="362.6523" x2="362.6523" y1="980.8301" y2="994.8301"/><polygon fill="#181818" points="358.6523,984.8301,362.6523,994.8301,366.6523,984.8301,362.6523,988.8301" style="stroke:#181818;stroke-width:1;stroke-linejoin:miter;stroke-miterlimit:10;"/><line style="stroke:#181818;stroke-width:1;" x1="362.6523" x2="362.6523" y1="1085.0176" y2="1186.1113"/><line style="stroke:#181818;stroke-width:1;" x1="362.6523" x2="738.5098" y1="1186.1113" y2="1186.1113"/><line style="stroke:#181818;stroke-width:1;" x1="738.5098" x2="738.5098" y1="1186.1113" y2="1198.1113"/><text fill="#000000" font-family="sans-serif" font-size="18" lengthAdjust="spacing" textLength="124.0752" x="194.5659" y="74.75">Planning Game</text><text fill="#000000" font-family="sans-serif" font-size="18" lengthAdjust="spacing" textLength="170.5781" x="660.311" y="74.75">Developer + reviewer</text><text fill="#000000" font-family="sans-serif" font-size="18" lengthAdjust="spacing" textLength="121.0254" x="1035.8447" y="74.75">User / reviewer</text><?plantuml-src dLDBZzCm4BxdLyon5LtjFPL0QDjT8R6h9QY20nUlFKciEkDWJ_gG-kCPEuMs5CIAInJPu_aUymrRTWXVdy6I3jWXCMmjjy0O-SO4kq42Wnjqli-NYWpWnXeaZKLSM-fLK1t4LXc_jTH0hLmylt6MaFSzWW_S-kBmx1HHAdnG7HwAo2fmKNv6XveXe39xYEp3FYFrmVfWUJyloZjFjGqTh2guXVlqUPAlT5z7kVqYLGYuKrtlCEQtIcliMGdFB4Qg3ejH20Pu8r0RYriCXw9yz0OT11lNUtZ1Lcq4T7HXzVZnL_FOAIUzMHHQbmIahZ2fbelflB0rJExbF48jRt7NYneqIK_qz6uAt8gFapt6QG5GVaWiivsT9TiDtGbsyb0jbq_I4SL6c93F3-vy2CcV32bL0RyFTXpNNEvl7DPyynPUGHJ9s7gaw_KGXMCs1teLunNF2ckbPHYIW6WRohPgCUkItK_qLwdAy6Kr40naUIRjY8E0p2I0Z4rGR3tDlf7aWgtEY46ECKOv1zsYJlDE_3yDoaaqe56Yu8_y3wieexuz6xLeMc3dfRi0uJ5eUanMHhvKzfV0f2vMDUIbCday11mJPqOtv_zbIjBq_fJP90YlHp9MdAs8vCA7qqucxDztB4yoaJy-uE1Z2gWiToelLxr9RhmelNQ-oKM4koD8gf2V_ZAG5V8Gw4WZhqgDQ5A7wpp-Ookp-Xy0?></g></svg>