<svg xmlns="http://www.w3.org/2000/svg" xmlns:xlink="http://www.w3.org/1999/xlink" contentStyleType="text/css" data-diagram-type="CLASS" height="277px" preserveAspectRatio="none" style="width:1822px;height:277px;background:#FFFFFF;" version="1.1" viewBox="0 0 1822 277" width="1822px" zoomAndPan="magnify"><?plantuml 1.2026.6?><defs/><g><g class="title" data-source-line="1"><text fill="#000000" font-family="sans-serif" font-size="14" font-weight="700" lengthAdjust="spacing" textLength="410.7373" x="702.1653" y="24.5332">OmniTrade AI - UML communication diagram for one analysis</text></g><g class="entity" data-qualified-name="UI" data-source-line="5" id="ent0001"><rect fill="#F1F1F1" height="37.6094" rx="2.5" ry="2.5" style="stroke:#181818;stroke-width:0.5;" width="112.0273" x="497" y="47.6094"/><text fill="#000000" font-family="sans-serif" font-size="14" lengthAdjust="spacing" textLength="98.0273" x="504" y="64.1426">:NewAnalysisUI</text><line style="stroke:#181818;stroke-width:0.5;" x1="498" x2="608.0273" y1="69.2188" y2="69.2188"/></g><g class="entity" data-qualified-name="API" data-source-line="6" id="ent0002"><rect fill="#F1F1F1" height="37.6094" rx="2.5" ry="2.5" style="stroke:#181818;stroke-width:0.5;" width="66.1377" x="669" y="47.6094"/><text fill="#000000" font-family="sans-serif" font-size="14" lengthAdjust="spacing" textLength="52.1377" x="676" y="64.1426">:RunAPI</text><line style="stroke:#181818;stroke-width:0.5;" x1="670" x2="734.1377" y1="69.2188" y2="69.2188"/></g><g class="entity" data-qualified-name="Validator" data-source-line="7" id="ent0003"><rect fill="#F1F1F1" height="37.6094" rx="2.5" ry="2.5" style="stroke:#181818;stroke-width:0.5;" width="130.7031" x="803" y="118.6094"/><text fill="#000000" font-family="sans-serif" font-size="14" lengthAdjust="spacing" textLength="116.7031" x="810" y="135.1426">:WorkflowValidator</text><line style="stroke:#181818;stroke-width:0.5;" x1="804" x2="932.7031" y1="140.2188" y2="140.2188"/></g><g class="entity" data-qualified-name="Scheduler" data-source-line="8" id="ent0004"><rect fill="#F1F1F1" height="37.6094" rx="2.5" ry="2.5" style="stroke:#181818;stroke-width:0.5;" width="147.082" x="795" y="45.6094"/><text fill="#000000" font-family="sans-serif" font-size="14" lengthAdjust="spacing" textLength="133.082" x="802" y="62.1426">:ReadinessScheduler</text><line style="stroke:#181818;stroke-width:0.5;" x1="796" x2="941.082" y1="67.2188" y2="67.2188"/></g><g class="entity" data-qualified-name="Evidence" data-source-line="9" id="ent0005"><rect fill="#F1F1F1" height="37.6094" rx="2.5" ry="2.5" style="stroke:#181818;stroke-width:0.5;" width="130.7305" x="1002" y="154.6094"/><text fill="#000000" font-family="sans-serif" font-size="14" lengthAdjust="spacing" textLength="116.7305" x="1009" y="171.1426">:EvidenceGateway</text><line style="stroke:#181818;stroke-width:0.5;" x1="1003" x2="1131.7305" y1="176.2188" y2="176.2188"/></g><g class="entity" data-qualified-name="Specialists" data-source-line="10" id="ent0006"><rect fill="#F1F1F1" height="37.6094" rx="2.5" ry="2.5" style="stroke:#181818;stroke-width:0.5;" width="105.8271" x="1014.5" y="63.6094"/><text fill="#000000" font-family="sans-serif" font-size="14" lengthAdjust="spacing" textLength="91.8271" x="1021.5" y="80.1426">:SpecialistPool</text><line style="stroke:#181818;stroke-width:0.5;" x1="1015.5" x2="1119.3271" y1="85.2188" y2="85.2188"/></g><g class="entity" data-qualified-name="Research" data-source-line="11" id="ent0007"><rect fill="#F1F1F1" height="37.6094" rx="2.5" ry="2.5" style="stroke:#181818;stroke-width:0.5;" width="150.958" x="1193" y="135.6094"/><text fill="#000000" font-family="sans-serif" font-size="14" lengthAdjust="spacing" textLength="136.958" x="1200" y="152.1426">:ResearchCoordinator</text><line style="stroke:#181818;stroke-width:0.5;" x1="1194" x2="1342.958" y1="157.2188" y2="157.2188"/></g><g class="entity" data-qualified-name="Risk" data-source-line="12" id="ent0008"><rect fill="#F1F1F1" height="37.6094" rx="2.5" ry="2.5" style="stroke:#181818;stroke-width:0.5;" width="118.2617" x="1404" y="153.6094"/><text fill="#000000" font-family="sans-serif" font-size="14" lengthAdjust="spacing" textLength="104.2617" x="1411" y="170.1426">:RiskCoordinator</text><line style="stroke:#181818;stroke-width:0.5;" x1="1405" x2="1521.2617" y1="175.2188" y2="175.2188"/></g><g class="entity" data-qualified-name="Report" data-source-line="13" id="ent0009"><rect fill="#F1F1F1" height="37.6094" rx="2.5" ry="2.5" style="stroke:#181818;stroke-width:0.5;" width="103.4893" x="1582" y="225.6094"/><text fill="#000000" font-family="sans-serif" font-size="14" lengthAdjust="spacing" textLength="89.4893" x="1589" y="242.1426">:ReportBuilder</text><line style="stroke:#181818;stroke-width:0.5;" x1="1583" x2="1684.4893" y1="247.2188" y2="247.2188"/></g><g class="entity" data-qualified-name="Repo" data-source-line="14" id="ent0010"><rect fill="#F1F1F1" height="37.6094" rx="2.5" ry="2.5" style="stroke:#181818;stroke-width:0.5;" width="147.8545" x="147.5" y="155.6094"/><text fill="#000000" font-family="sans-serif" font-size="14" lengthAdjust="spacing" textLength="133.8545" x="154.5" y="172.1426">:Repository/EventLog</text><line style="stroke:#181818;stroke-width:0.5;" x1="148.5" x2="294.3545" y1="177.2188" y2="177.2188"/></g><g class="entity" data-qualified-name="GMN23" data-source-line="28" id="ent0024"><path d="M6,228.6094 L6,254.9609 A0,0 0 0 0 6,254.9609 L437.4014,254.9609 A0,0 0 0 0 437.4014,254.9609 L437.4014,238.6094 L427.4014,228.6094 L226,228.6094 L222,193.6294 L218,228.6094 L6,228.6094 A0,0 0 0 0 6,228.6094" fill="#FEFFDD" style="stroke:#181818;stroke-width:0.5;"/><path d="M427.4014,228.6094 L427.4014,238.6094 L437.4014,238.6094 L427.4014,228.6094" fill="#FEFFDD" style="stroke:#181818;stroke-width:0.5;"/><text fill="#000000" font-family="sans-serif" font-size="13" lengthAdjust="spacing" textLength="410.4014" x="12" y="247.1045">Numbers show message order; * marks repeated or parallel messages.</text></g><!--link UI to API--><g class="link" data-entity-1="ent0001" data-entity-2="ent0002" data-link-type="dependency" data-source-line="15" id="lnk11"><path codeLine="15" d="M609.33,66.6094 C629.44,66.6094 646.43,66.6094 663.94,66.6094" fill="none" id="UI-to-API" style="stroke:#181818;stroke-width:1;"/><polygon fill="#181818" points="668.94,66.6094,659.94,62.6094,663.94,66.6094,659.94,70.6094,668.94,66.6094" style="stroke:#181818;stroke-width:1;stroke-linejoin:miter;stroke-miterlimit:10;"/><text fill="#000000" font-family="sans-serif" font-size="13" lengthAdjust="spacing" textLength="157.5298" x="481.13" y="81.1045">1: createRun(configuration)</text></g><!--link API to Validator--><g class="link" data-entity-1="ent0002" data-entity-2="ent0003" data-link-type="dependency" data-source-line="16" id="lnk12"><path codeLine="16" d="M702,85.8694 C702,106.7494 702,137.1094 702,137.1094 C702,137.1094 751.16,137.1094 797.69,137.1094" fill="none" id="API-to-Validator" style="stroke:#181818;stroke-width:1;"/><polygon fill="#181818" points="802.69,137.1094,793.69,133.1094,797.69,137.1094,793.69,141.1094,802.69,137.1094" style="stroke:#181818;stroke-width:1;stroke-linejoin:miter;stroke-miterlimit:10;"/><text fill="#000000" font-family="sans-serif" font-size="13" lengthAdjust="spacing" textLength="202.3315" x="523.73" y="133.6045">1.1: validate(version, configuration)</text></g><!--link Validator to Repo--><g class="link" data-entity-1="ent0003" data-entity-2="ent0010" data-link-type="dependency" data-source-line="17" id="lnk13"><path codeLine="17" d="M891,156.6494 C891,164.1494 891,171.0094 891,171.0094 C891,171.0094 475.02,171.0094 300.71,171.0094" fill="none" id="Validator-to-Repo" style="stroke:#181818;stroke-width:1;"/><polygon fill="#181818" points="295.71,171.0094,304.71,175.0094,300.71,171.0094,304.71,167.0094,295.71,171.0094" style="stroke:#181818;stroke-width:1;stroke-linejoin:miter;stroke-miterlimit:10;"/><text fill="#000000" font-family="sans-serif" font-size="13" lengthAdjust="spacing" textLength="195.1079" x="404.53" y="185.5045">1.2: save immutable run snapshot</text></g><!--link API to Scheduler--><g class="link" data-entity-1="ent0002" data-entity-2="ent0004" data-link-type="dependency" data-source-line="18" id="lnk14"><path codeLine="18" d="M735.29,65.6094 C752.38,65.6094 768.91,65.6094 789.66,65.6094" fill="none" id="API-to-Scheduler" style="stroke:#181818;stroke-width:1;"/><polygon fill="#181818" points="794.66,65.6094,785.66,61.6094,789.66,65.6094,785.66,69.6094,794.66,65.6094" style="stroke:#181818;stroke-width:1;stroke-linejoin:miter;stroke-miterlimit:10;"/><text fill="#000000" font-family="sans-serif" font-size="13" lengthAdjust="spacing" textLength="87.4326" x="676.98" y="80.1045">2: execute(run)</text></g><!--link Scheduler to Evidence--><g class="link" data-entity-1="ent0004" data-entity-2="ent0005" data-link-type="dependency" data-source-line="19" id="lnk15"><path codeLine="19" d="M942.04,76.9394 C976.04,76.9394 1009,76.9394 1009,76.9394 C1009,76.9394 1009,121.3394 1009,149.5094" fill="none" id="Scheduler-to-Evidence" style="stroke:#181818;stroke-width:1;"/><polygon fill="#181818" points="1009,154.5094,1013,145.5094,1009,149.5094,1005,145.5094,1009,154.5094" style="stroke:#181818;stroke-width:1;stroke-linejoin:miter;stroke-miterlimit:10;"/><text fill="#000000" font-family="sans-serif" font-size="13" lengthAdjust="spacing" textLength="206.6733" x="802" y="96.7445">2.1*: collect selected evidence roles</text></g><!--link Evidence to Repo--><g class="link" data-entity-1="ent0005" data-entity-2="ent0010" data-link-type="dependency" data-source-line="20" id="lnk16"><path codeLine="20" d="M1001.82,178.2094 C846.72,178.2094 463.58,178.2094 300.5,178.2094" fill="none" id="Evidence-to-Repo" style="stroke:#181818;stroke-width:1;"/><polygon fill="#181818" points="295.5,178.2094,304.5,182.2094,300.5,178.2094,304.5,174.2094,295.5,178.2094" style="stroke:#181818;stroke-width:1;stroke-linejoin:miter;stroke-miterlimit:10;"/><text fill="#000000" font-family="sans-serif" font-size="13" lengthAdjust="spacing" textLength="222.5742" x="649.66" y="192.7045">2.2*: save normalized evidence/events</text></g><!--link Scheduler to Specialists--><g class="link" data-entity-1="ent0004" data-entity-2="ent0006" data-link-type="dependency" data-source-line="21" id="lnk17"><path codeLine="21" d="M942.03,70.2794 C966.06,70.2794 987.26,70.2794 1009.47,70.2794" fill="none" id="Scheduler-to-Specialists" style="stroke:#181818;stroke-width:1;"/><polygon fill="#181818" points="1014.47,70.2794,1005.47,66.2794,1009.47,70.2794,1005.47,74.2794,1014.47,70.2794" style="stroke:#181818;stroke-width:1;stroke-linejoin:miter;stroke-miterlimit:10;"/><text fill="#000000" font-family="sans-serif" font-size="13" lengthAdjust="spacing" textLength="180.6543" x="979.25" y="66.7745">3*: execute selected specialists</text></g><!--link Specialists to Research--><g class="link" data-entity-1="ent0006" data-entity-2="ent0007" data-link-type="dependency" data-source-line="22" id="lnk18"><path codeLine="22" d="M1068,101.6994 C1068,120.0794 1068,145.1094 1068,145.1094 C1068,145.1094 1131.15,145.1094 1187.99,145.1094" fill="none" id="Specialists-to-Research" style="stroke:#181818;stroke-width:1;"/><polygon fill="#181818" points="1192.99,145.1094,1183.99,141.1094,1187.99,145.1094,1183.99,149.1094,1192.99,145.1094" style="stroke:#181818;stroke-width:1;stroke-linejoin:miter;stroke-miterlimit:10;"/><text fill="#000000" font-family="sans-serif" font-size="13" lengthAdjust="spacing" textLength="114.1753" x="993.79" y="141.6045">4: join typed reports</text></g><!--link Research to Risk--><g class="link" data-entity-1="ent0007" data-entity-2="ent0008" data-link-type="dependency" data-source-line="23" id="lnk19"><path codeLine="23" d="M1344.26,163.6094 C1363.99,163.6094 1379.96,163.6094 1398.71,163.6094" fill="none" id="Research-to-Risk" style="stroke:#181818;stroke-width:1;"/><polygon fill="#181818" points="1403.71,163.6094,1394.71,159.6094,1398.71,163.6094,1394.71,167.6094,1403.71,163.6094" style="stroke:#181818;stroke-width:1;stroke-linejoin:miter;stroke-miterlimit:10;"/><text fill="#000000" font-family="sans-serif" font-size="13" lengthAdjust="spacing" textLength="166.5752" x="1206.98" y="178.1045">5: proposal + bull/bear cases</text></g><!--link Risk to Report--><g class="link" data-entity-1="ent0008" data-entity-2="ent0009" data-link-type="dependency" data-source-line="24" id="lnk20"><path codeLine="24" d="M1522.33,172.6094 C1571.72,172.6094 1634,172.6094 1634,172.6094 C1634,172.6094 1634,198.9894 1634,220.3194" fill="none" id="Risk-to-Report" style="stroke:#181818;stroke-width:1;"/><polygon fill="#181818" points="1634,225.3194,1638,216.3194,1634,220.3194,1630,216.3194,1634,225.3194" style="stroke:#181818;stroke-width:1;stroke-linejoin:miter;stroke-miterlimit:10;"/><text fill="#000000" font-family="sans-serif" font-size="13" lengthAdjust="spacing" textLength="200.5479" x="1605.52" y="187.1045">6: validated decision + role outputs</text></g><!--link Report to Repo--><g class="link" data-entity-1="ent0009" data-entity-2="ent0010" data-link-type="dependency" data-source-line="25" id="lnk21"><path codeLine="25" d="M1581.9,241.6094 C1406.92,241.6094 847,241.6094 847,241.6094 C847,241.6094 847,185.4094 847,185.4094 C847,185.4094 466.4,185.4094 300.71,185.4094" fill="none" id="Report-to-Repo" style="stroke:#181818;stroke-width:1;"/><polygon fill="#181818" points="295.71,185.4094,304.71,189.4094,300.71,185.4094,304.71,181.4094,295.71,185.4094" style="stroke:#181818;stroke-width:1;stroke-linejoin:miter;stroke-miterlimit:10;"/><text fill="#000000" font-family="sans-serif" font-size="13" lengthAdjust="spacing" textLength="224.0215" x="685.7" y="256.1045">6.1: save report/lineage/artifact hashes</text></g><!--link Repo to UI--><g class="link" data-entity-1="ent0010" data-entity-2="ent0001" data-link-type="dependency" data-source-line="26" id="lnk22"><path codeLine="26" d="M295.9,163.8094 C393.63,163.8094 553,163.8094 553,163.8094 C553,163.8094 553,119.1394 553,90.8094" fill="none" id="Repo-to-UI" style="stroke:#181818;stroke-width:1;"/><polygon fill="#181818" points="553,85.8094,549,94.8094,553,90.8094,557,94.8094,553,85.8094" style="stroke:#181818;stroke-width:1;stroke-linejoin:miter;stroke-miterlimit:10;"/><text fill="#000000" font-family="sans-serif" font-size="13" lengthAdjust="spacing" textLength="209.5615" x="464.45" y="160.3045">7*: stream events and expose report</text></g><?plantuml-src PPHlRzD03CRVvrDOUxKLrce5XbGaf88cL6cCYL5uxIPESklb79qlxSgddozP_Z1UHN5-Z-rxx5mmmHByg9pvvJ4ZM6_W4hRVRo7bgcgSIJ4OTf0PB3nMaBC7TWJeq9x4I68f3n0Ol2dAe9YdD0eIsHjNOvH8YHaVZIiWHoiq-MADet2g2TY7aXFUFQeOpbPtT5o_vDzkpW05jflnwy_6hU-xi3x7-1_s-zpoyJTQas5WtoB3soG1OQQLHHxIahB6KaSERoDvSp0PkPI-OQ0ZdbgiZutKGqsfqJ8Ixfbjbsi8oRIk4Fgq_ChijO6XnJu-8Oti_wCqDirLgsbV6cCpwhF4oB-465MV5ZS7Sk6MYu5BjZhboy_HFrZ1rGfIJtf4TVOyPPURel7js2-II4Hoi37oSrKSkW2T7yYBec_XbN9KH7sisagNAn0y41ZThe0xtJtVE127jPGSXdh3C5Ia4dgYjD5YobuauxT8zlE8uFngfcTXQwC5Gl516L1FUBOaoI2OzBMSBsSlZJdsbRR-To9SK3HGNXMUp5Wpl9iDNOwLPR86Kxoht4rTjUzNyCZ6GVmNCl3j82KPW9RMwIlvOGMrPnqiMdW3kyRQnKuXI57qP2tKdye7vQ_7GMMGQGDnLAgCJW0teMxQGYqziUCwJhXresjc4VzKB6Y1FfWSrTmIfQHEsWgtSP4-HW-3hb85dMDwJQYBJzfldobnh0RjE0Ikahkcskdsw0t1HwZqXzGIUXVeHd-26LJezn9br7QlYnHl3PsjxLcP9wG5Oifd?></g></svg>